<?xml version="1.0" standalone="no"?>
<!DOCTYPE svg PUBLIC "-//W3C//DTD SVG 1.1//EN" "http://www.w3.org/Graphics/SVG/1.1/DTD/svg11.dtd" >
<svg xmlns="http://www.w3.org/2000/svg" xmlns:xlink="http://www.w3.org/1999/xlink" version="1.1">
<metadata></metadata>
<defs>
<font id="adieulight" horiz-adv-x="0" >
<font-face units-per-em="1000" ascent="800" descent="-200" />
<missing-glyph horiz-adv-x="300" />
<glyph unicode=" "  horiz-adv-x="300" />
<glyph unicode="&#x09;" horiz-adv-x="300" />
<glyph unicode="&#xa0;" horiz-adv-x="300" />
<glyph unicode="!" horiz-adv-x="258" d="M72 294l-10 406h135l-10 -406h-115zM130 -18q-26 0 -46.5 19t-20.5 44q0 26 20 44.5t47 18.5t47.5 -18.5t20.5 -44.5t-20 -44.5t-48 -18.5z" />
<glyph unicode="&#x22;" horiz-adv-x="358" d="M47 430l-17 270h114l-33 -270h-64zM231 430l-17 270h114l-33 -270h-64z" />
<glyph unicode="#" horiz-adv-x="1009" d="M966 418h-151l-33 -153h160l-13 -82h-165l-39 -183h-126l39 183h-317l-39 -183h-126l39 183h-165l13 82h170l33 153h-179l13 82h184l43 200h126l-43 -200h317l43 200h126l-43 -200h146zM656 265l33 153h-317l-33 -153h317z" />
<glyph unicode="$" horiz-adv-x="863" d="M818 201q0 -92 -82.5 -147t-225.5 -67v-97h-157v98q-144 13 -226.5 76t-80.5 157h114q-1 -66 72 -105t189 -39q284 2 284 119q0 42 -35.5 66t-92.5 33t-126 13.5t-138 12.5t-126 24.5t-92.5 56t-35.5 99.5q0 92 79 146.5t215 65.5v122h157v-124q134 -16 212 -77.5 t79 -154.5h-115q1 66 -71.5 105t-188.5 39q-123 0 -187.5 -28t-64.5 -81q0 -36 35.5 -56.5t92.5 -28t125.5 -12t137 -15t125.5 -30t92.5 -63t35.5 -108.5z" />
<glyph unicode="%" horiz-adv-x="1039" d="M259 460q-86 0 -147.5 35t-61.5 90t61.5 90t147.5 35q93 0 151 -34.5t58 -90.5t-58 -90.5t-151 -34.5zM110 0l711 700h118l-710 -700h-119zM259 500q54 0 87 23t33 60q0 39 -33 63.5t-87 24.5q-53 0 -86 -24t-33 -62t33 -61.5t86 -23.5zM781 -11q-86 0 -147.5 35 t-61.5 90t61.5 90t147.5 35q93 0 151 -34.5t58 -90.5t-58 -90.5t-151 -34.5zM781 28q54 0 87 23t33 61q0 39 -33 63t-87 24q-53 0 -86 -23.5t-33 -61.5t33 -62t86 -24z" />
<glyph unicode="&#x26;" horiz-adv-x="879" d="M365 -12q-41 0 -80 4.5t-85 19t-80 37.5t-57 64.5t-23 95.5q0 85 76.5 142t194.5 56l-208 211v82h625v-90h-495l422 -422q91 79 142 190l61 -75q-57 -106 -140 -179l123 -124h-130l-68 69q-131 -81 -278 -81zM372 79q107 0 207 55l-206 209q-82 20 -151.5 -12t-69.5 -99 q0 -153 220 -153z" />
<glyph unicode="'" horiz-adv-x="174" d="M47 430l-17 270h114l-33 -270h-64z" />
<glyph unicode="(" horiz-adv-x="470" d="M420 -137q-173 1 -271.5 133.5t-98.5 353.5t98.5 353.5t271.5 133.5v-86q-124 -1 -199 -111t-75 -290t75 -290t199 -111v-86z" />
<glyph unicode=")" horiz-adv-x="470" d="M50 -137v86q122 1 198 112.5t76 288.5t-76 288.5t-198 112.5v86q173 -1 271.5 -133.5t98.5 -353.5t-98.5 -353.5t-271.5 -133.5z" />
<glyph unicode="*" horiz-adv-x="615" d="M248 194l33 195l-128 -158l-83 75l174 117l-214 -30v108l214 -30l-174 117l83 76l128 -159l-33 195h118l-32 -195l128 159l83 -76l-175 -117l215 30v-108l-215 30l175 -117l-83 -75l-128 158l32 -195h-118z" />
<glyph unicode="+" horiz-adv-x="580" d="M249 71v218h-219v83h218v219h83v-219h219v-83h-218v-218h-83z" />
<glyph unicode="," horiz-adv-x="226" d="M30 -169l63 270h103l-113 -270h-53z" />
<glyph unicode="-" horiz-adv-x="460" d="M30 289v83h400v-83h-400z" />
<glyph unicode="." horiz-adv-x="240" d="M120 -18q-26 0 -46.5 19t-20.5 44q0 26 20 44.5t47 18.5t47.5 -18.5t20.5 -44.5t-20 -44.5t-48 -18.5z" />
<glyph unicode="/" horiz-adv-x="1018" d="M30 0l832 700h126l-832 -700h-126z" />
<glyph unicode="0" horiz-adv-x="976" d="M488 -16q-203 0 -322.5 100t-119.5 266t119.5 266t322.5 100q204 0 323.5 -100t119.5 -266t-119.5 -266t-323.5 -100zM488 77q150 0 240.5 74t90.5 199q0 126 -90.5 199.5t-240.5 73.5q-149 0 -239.5 -73.5t-90.5 -199.5q0 -125 90.5 -199t239.5 -74z" />
<glyph unicode="1" horiz-adv-x="587" d="M384 0v581l-329 -215v111l389 223h52v-700h-112z" />
<glyph unicode="2" horiz-adv-x="853" d="M55 0v60q35 18 113.5 58t126 64.5t118 63t114 68t87 63.5t64.5 64t21 57q0 67 -63 95.5t-216 28.5q-75 0 -186.5 -13.5t-142.5 -25.5v97q43 14 153 24.5t203 10.5q189 0 277 -43t88 -155q0 -58 -50.5 -121.5t-133.5 -119.5t-171 -101.5t-180 -81.5h505v-93h-727z" />
<glyph unicode="3" horiz-adv-x="821" d="M389 -16q-228 0 -348 44v93q48 -20 140.5 -32t175.5 -12q167 0 243 24t76 73q0 36 -25 58t-95.5 39t-181 26.5t-295.5 17.5v72q226 8 353 24.5t175.5 41t48.5 63.5q0 55 -70 81.5t-230 26.5q-79 0 -172.5 -12.5t-142.5 -32.5v93q59 22 152 33.5t173 11.5q71 0 123.5 -3.5 t106 -15.5t87.5 -32.5t55 -56t21 -84.5q0 -31 -12.5 -56.5t-35.5 -42.5t-47.5 -30t-58.5 -20t-57 -11.5t-55 -5.5t-40.5 -1.5t-23.5 -0.5v-9h31q31 -1 49.5 -2t55.5 -5t62 -11t56.5 -20t50 -30t32 -44t13.5 -60q0 -56 -27.5 -94.5t-82 -59.5t-121.5 -29.5t-159 -8.5z" />
<glyph unicode="4" horiz-adv-x="881" d="M631 0v132h-610v66l532 502h190v-475h111v-93h-111v-132h-112zM165 225h466v440z" />
<glyph unicode="5" horiz-adv-x="825" d="M358 -16q-75 0 -173.5 11.5t-143.5 29.5v102q40 -18 140.5 -34t173.5 -16q162 0 234 38t72 122q0 66 -57.5 93t-174.5 27q-176 0 -349 -78v421h655v-93h-567v-198q134 45 290 45q50 0 91.5 -5t84.5 -20t72.5 -39.5t48 -66t18.5 -97.5q0 -114 -113.5 -178t-301.5 -64z" />
<glyph unicode="6" horiz-adv-x="867" d="M456 -12q-190 0 -300 94t-110 280q0 170 119.5 261.5t319.5 91.5q165 0 283 -58v-106q-127 71 -302 71q-133 0 -220.5 -72.5t-87.5 -187.5v-28q60 51 151.5 88.5t193.5 37.5q159 0 239 -65t80 -173q0 -107 -96.5 -170.5t-269.5 -63.5zM447 81q135 0 198.5 33.5 t63.5 111.5q0 145 -231 145q-84 0 -175 -36.5t-132 -94.5q24 -85 90 -122t186 -37z" />
<glyph unicode="7" horiz-adv-x="813" d="M179 0l476 607h-639v93h776v-44l-477 -656h-136z" />
<glyph unicode="8" horiz-adv-x="844" d="M436 -20q-181 0 -288 48.5t-107 154.5q0 137 221 161q-36 6 -67.5 17.5t-63.5 31.5t-51 53t-19 75q0 93 96 142.5t265 49.5q158 0 259 -49.5t101 -142.5q0 -42 -19 -75t-51 -53t-63.5 -31.5t-67.5 -17.5q221 -24 221 -161q0 -95 -100.5 -149t-265.5 -54zM422 392 q128 0 187.5 25.5t59.5 84.5q0 52 -67.5 84.5t-179.5 32.5q-113 0 -180.5 -32.5t-67.5 -84.5q0 -59 60.5 -84.5t187.5 -25.5zM423 75q120 0 193 30t73 84q0 109 -267 109q-268 0 -268 -109q0 -54 74 -84t195 -30z" />
<glyph unicode="9" horiz-adv-x="867" d="M411 714q190 0 300 -94t110 -280q0 -170 -119.5 -261.5t-319.5 -91.5q-165 0 -283 58v106q127 -71 302 -71q133 0 220.5 72.5t87.5 187.5v28q-60 -51 -151.5 -88.5t-193.5 -37.5q-159 0 -239 65t-80 173q0 107 96.5 170.5t269.5 63.5zM420 621q-135 0 -198.5 -33.5 t-63.5 -111.5q0 -145 231 -145q84 0 175 36.5t132 94.5q-24 85 -90 122t-186 37z" />
<glyph unicode=":" horiz-adv-x="305" d="M120 288q-26 0 -46.5 19t-20.5 44q0 26 20 44.5t47 18.5t47.5 -18.5t20.5 -44.5t-20 -44.5t-48 -18.5zM120 -18q-26 0 -46.5 19t-20.5 44q0 26 20 44.5t47 18.5t47.5 -18.5t20.5 -44.5t-20 -44.5t-48 -18.5z" />
<glyph unicode=";" horiz-adv-x="293" d="M142 288q-26 0 -46.5 19t-20.5 44q0 26 20 44.5t47 18.5t47.5 -18.5t20.5 -44.5t-20 -44.5t-48 -18.5zM30 -169l63 270h103l-113 -270h-53z" />
<glyph unicode="&#x3c;" horiz-adv-x="461" d="M236 0l-206 250l206 250h150l-214 -250l214 -250h-150z" />
<glyph unicode="=" horiz-adv-x="580" d="M30 412v83h520v-83h-520zM30 159v83h520v-83h-520z" />
<glyph unicode="&#x3e;" horiz-adv-x="416" d="M30 0l214 250l-214 250h150l206 -250l-206 -250h-150z" />
<glyph unicode="?" horiz-adv-x="728" d="M234 232q-1 7 -1 18q0 50 32 83t78 49.5t92 30.5t78 37t32 59q0 71 -55.5 92t-234.5 21q-102 0 -245 -21v96q134 18 280 18q193 0 280.5 -45t87.5 -164q0 -61 -36 -99t-87.5 -54t-103.5 -28t-88 -33.5t-36 -59.5h-73zM270 -18q-26 0 -46.5 19t-20.5 44q0 26 20 44.5 t47 18.5t47.5 -18.5t20.5 -44.5t-20 -44.5t-48 -18.5z" />
<glyph unicode="@" horiz-adv-x="1073" d="M536 725q220 0 353.5 -107.5t133.5 -265.5q0 -77 -40.5 -138t-123.5 -92h-175l25 139h-7q-19 -76 -85.5 -114t-164.5 -38q-153 0 -153 108q0 33 23.5 58.5t55.5 39.5t82 24.5t84.5 14t82.5 7.5t58 5q-1 64 -32.5 88.5t-108.5 24.5q-85 0 -193 -47v70q119 45 226 45 q200 0 200 -193v-216q78 43 106.5 91t28.5 123q0 124 -104 200.5t-272 76.5q-167 0 -270.5 -85.5t-103.5 -221.5t103.5 -221t270.5 -85q99 0 171 25v-102q-80 -20 -171 -20q-224 0 -355 110t-131 293t131 293t355 110zM484 176q80 0 138.5 35.5t59.5 97.5q-13 -1 -45 -3 t-54 -4t-53 -5.5t-52 -9t-41.5 -13t-30.5 -19.5t-10 -27q0 -52 88 -52z" />
<glyph unicode="A" horiz-adv-x="1083" d="M36 0l431 700h149l430 -700h-126l-97 163h-564l-96 -163h-127zM315 256h453l-226 386z" />
<glyph unicode="B" horiz-adv-x="926" d="M91 0v700h513q106 0 165.5 -51t59.5 -134q0 -147 -194 -159q101 -2 159 -46t58 -124q0 -84 -62 -135t-164 -51h-535zM203 390h366q148 0 148 106q0 111 -148 111h-367zM204 94h387q148 0 148 117q0 110 -148 110h-388z" />
<glyph unicode="C" horiz-adv-x="934" d="M466 -16q-190 0 -306 100.5t-116 265.5t116 265.5t306 100.5t306 -88t116 -233h-114q-4 106 -88 167t-220 61q-141 0 -225.5 -73.5t-84.5 -199.5q0 -125 85 -199t225 -74q137 0 221 61.5t87 166.5h114q0 -145 -116 -233t-306 -88z" />
<glyph unicode="D" horiz-adv-x="871" d="M91 0v700h326q192 0 300 -90t108 -260q0 -171 -108 -260.5t-300 -89.5h-326zM203 93h214q137 0 216.5 69t79.5 188t-79.5 188t-216.5 69h-214v-514z" />
<glyph unicode="E" horiz-adv-x="810" d="M91 0v700h638v-93h-526v-209h517v-85h-517v-220h526v-93h-638z" />
<glyph unicode="F" horiz-adv-x="776" d="M91 0v700h634v-93h-522v-209h513v-85h-513v-313h-112z" />
<glyph unicode="G" horiz-adv-x="971" d="M478 -16q-190 0 -306 100.5t-116 265.5t116 265.5t306 100.5q179 0 290 -74.5t119 -197.5h-109q-9 85 -87.5 132t-214.5 47q-139 0 -223.5 -73.5t-84.5 -199.5q0 -125 85 -199t225 -74q132 0 215 54t93 147h-413v87h525v-365h-104l6 123q-50 -69 -136 -104t-186 -35z" />
<glyph unicode="H" horiz-adv-x="908" d="M91 0v700h112v-293h501v293h112v-700h-112v314h-501v-314h-112z" />
<glyph unicode="I" horiz-adv-x="295" d="M91 0v700h112v-700h-112z" />
<glyph unicode="J" horiz-adv-x="838" d="M404 -16q-343 0 -343 355h113q0 -137 54.5 -199.5t175.5 -62.5q122 0 176 62.5t54 199.5v268h-480v93h592v-361q0 -355 -342 -355z" />
<glyph unicode="K" horiz-adv-x="950" d="M91 0v700h112v-443l508 443h154l-291 -243l312 -457h-135l-261 389l-287 -239v-150h-112z" />
<glyph unicode="L" horiz-adv-x="755" d="M91 0v700h112v-607h511v-93h-623z" />
<glyph unicode="M" horiz-adv-x="1065" d="M91 0v700h139l302 -529l303 529h138v-700h-112v544l-319 -544h-19l-320 540v-540h-112z" />
<glyph unicode="N" horiz-adv-x="967" d="M91 0v700h114l559 -564v564h112v-700h-115l-558 563v-563h-112z" />
<glyph unicode="O" horiz-adv-x="976" d="M488 -16q-203 0 -322.5 100t-119.5 266t119.5 266t322.5 100q204 0 323.5 -100t119.5 -266t-119.5 -266t-323.5 -100zM488 77q150 0 240.5 74t90.5 199q0 126 -90.5 199.5t-240.5 73.5q-149 0 -239.5 -73.5t-90.5 -199.5q0 -125 90.5 -199t239.5 -74z" />
<glyph unicode="P" horiz-adv-x="881" d="M91 0v700h493q106 0 170.5 -62t64.5 -152q0 -103 -65 -158t-170 -55h-381v-273h-112zM202 368h357q78 0 113 28t35 90q0 63 -35 91.5t-113 28.5h-357v-238z" />
<glyph unicode="Q" horiz-adv-x="996" d="M952 72l-45 -69l-115 66q-118 -85 -304 -85q-203 0 -322.5 100t-119.5 266t119.5 266t322.5 100q204 0 323.5 -100t119.5 -266q0 -130 -76 -223zM488 77q121 0 205 49l-211 122l37 69l240 -136q60 68 60 169q0 126 -90.5 199.5t-240.5 73.5q-149 0 -239.5 -73.5 t-90.5 -199.5q0 -125 90.5 -199t239.5 -74z" />
<glyph unicode="R" horiz-adv-x="941" d="M91 0v700h543q106 0 165.5 -51t59.5 -134t-61 -129.5t-164 -46.5h-74q48 -3 87 -19t69 -38.5t63.5 -68.5t60 -90t69.5 -123h-125q-97 174 -128 216q-52 69 -113 84q-25 5 -55 5h-286l1 -305h-112zM202 401h397q148 0 148 96q0 57 -35 83t-113 26h-398z" />
<glyph unicode="S" horiz-adv-x="864" d="M429 -16q-176 0 -280.5 65.5t-102.5 171.5h114q-1 -66 72 -105t189 -39q284 2 284 119q0 42 -35.5 66t-92.5 33t-126 13.5t-138 12.5t-126 24.5t-92.5 56t-35.5 99.5q0 103 98.5 159t262.5 56q172 0 276 -64.5t105 -172.5h-115q1 66 -71.5 105t-188.5 39 q-123 0 -187.5 -28t-64.5 -81q0 -36 35.5 -56.5t92.5 -28t125.5 -12t137 -15t125.5 -30t92.5 -63t35.5 -108.5q0 -105 -106 -161t-283 -56z" />
<glyph unicode="T" horiz-adv-x="896" d="M391 0v607h-355v93h823v-93h-356v-607h-112z" />
<glyph unicode="U" horiz-adv-x="902" d="M451 -16q-89 0 -153.5 19.5t-112 64t-71 121t-23.5 186.5v325h112v-355q0 -139 59 -204t189 -65t188.5 65t58.5 204v355h112v-325q0 -215 -89 -303t-270 -88z" />
<glyph unicode="V" horiz-adv-x="1035" d="M999 700l-403 -700h-34l1 -1h-91l1 1h-34l-403 700h138l344 -619l343 619h138z" />
<glyph unicode="W" horiz-adv-x="1259" d="M318 0l-259 700h116l207 -567l200 567h94l200 -567l207 567h117l-259 -700h-118l-193 564l-194 -564h-118z" />
<glyph unicode="X" horiz-adv-x="939" d="M64 0l332 351l-332 349h138l267 -283l268 283h138l-337 -355l326 -345h-135l-265 280l-264 -280h-136z" />
<glyph unicode="Y" horiz-adv-x="868" d="M378 0v226l-353 474h137l272 -368l272 368h137l-353 -473v-227h-112z" />
<glyph unicode="Z" horiz-adv-x="879" d="M46 0v65l616 542h-608v93h769v-62l-611 -545h621v-93h-787z" />
<glyph unicode="[" horiz-adv-x="513" d="M483 648h-341v-786h341v-52h-453v890h453v-52z" />
<glyph unicode="\" horiz-adv-x="1018" d="M862 0l-832 700h126l832 -700h-126z" />
<glyph unicode="]" horiz-adv-x="513" d="M483 700v-890h-453v52h341v786h-341v52h453z" />
<glyph unicode="^" horiz-adv-x="560" d="M30 317v118l250 274l250 -274v-118l-250 242z" />
<glyph unicode="_" horiz-adv-x="1060" d="M30 0v83h1000v-83h-1000z" />
<glyph unicode="`" horiz-adv-x="387" d="M337 544l-287 164v102l287 -186v-80z" />
<glyph unicode="a" horiz-adv-x="672" d="M232 -16q-186 0 -186 132q0 34 19.5 61.5t55.5 45.5t74.5 30.5t90.5 20t88 11t82 7t59 4.5q-1 78 -39.5 108t-131.5 30q-103 0 -235 -57v85q146 54 275 54q243 0 243 -234v-282h-113l30 169h-8q-23 -92 -104 -138.5t-200 -46.5zM271 66q97 0 168 43t73 118 q-17 -1 -55 -3.5t-65.5 -5t-64.5 -6.5t-63 -10.5t-50.5 -16t-37 -24t-12.5 -32.5q0 -30 28 -46.5t79 -16.5z" />
<glyph unicode="b" horiz-adv-x="780" d="M428 -16q-92 0 -161 50t-88 129h-12l22 -163h-116v700h112v-362h4q18 88 94 133t176 45q108 0 186.5 -74t78.5 -188q0 -120 -83.5 -195t-212.5 -75zM414 67q89 0 142.5 51t53.5 134q0 81 -53.5 131t-142.5 50q-82 0 -140 -51t-58 -130q0 -81 58 -133t140 -52z" />
<glyph unicode="c" horiz-adv-x="652" d="M379 -16q-145 0 -239 73.5t-94 192.5q0 120 92 193t242 73q67 0 116 -11t110 -38v-96q-61 34 -116 48t-129 14q-90 0 -146 -50.5t-56 -132.5t60 -132.5t156 -50.5q79 0 130 13t101 45v-91q-63 -29 -109 -39.5t-118 -10.5z" />
<glyph unicode="d" horiz-adv-x="780" d="M352 -16q-129 0 -212.5 75t-83.5 195q0 114 78.5 188t186.5 74q100 0 176 -45t94 -133h4v362h112v-700h-116l22 163h-12q-19 -79 -88 -129t-161 -50zM366 67q82 0 140 52t58 133q0 79 -58 130t-140 51q-89 0 -142.5 -50t-53.5 -131q0 -83 53.5 -134t142.5 -51z" />
<glyph unicode="e" horiz-adv-x="693" d="M347 -16q-136 0 -218.5 73t-82.5 193t82.5 193t218.5 73q134 0 216.5 -62.5t84.5 -164.5v-82h-490q12 -75 67 -107t172 -32q29 0 56 2.5t44.5 6t39 10.5t31.5 11t30.5 13t27.5 12v-90q-79 -30 -134.5 -39.5t-144.5 -9.5zM156 276l387 8q-2 67 -55.5 108t-140.5 41 q-81 0 -133.5 -43t-57.5 -114z" />
<glyph unicode="f" horiz-adv-x="447" d="M121 0v420h-68v80h68v20q0 188 168 188q28 0 99 -15v-55q-7 -1 -19 0t-15 1q-80 0 -100.5 -26t-20.5 -113h155v-82h-155v-418h-112z" />
<glyph unicode="g" horiz-adv-x="767" d="M376 -200q-18 0 -35 1t-30 1.5t-28 3t-23.5 3.5t-23.5 5.5t-20.5 5.5t-21 7t-19.5 7t-22 8t-22 9v101q41 -31 110.5 -50t141.5 -19q106 0 157.5 46t52.5 123l5 98q-24 -79 -91.5 -124t-154.5 -45q-130 0 -213 76t-83 197q0 115 78 188.5t186 73.5q100 0 176.5 -45 t94.5 -133h13l-11 162h102v-440q0 -130 -86 -195t-233 -65zM365 67q82 0 140 52t58 133q0 79 -58 130t-140 51q-89 0 -142.5 -50t-53.5 -131q0 -83 53.5 -134t142.5 -51z" />
<glyph unicode="h" horiz-adv-x="685" d="M73 0v700h126l-20 -406h6q15 95 77.5 158.5t165.5 63.5q108 -2 160.5 -75t52.5 -224v-217h-112v200q0 120 -35.5 176t-113.5 56q-91 0 -143 -82.5t-52 -226.5v-123h-112z" />
<glyph unicode="i" horiz-adv-x="284" d="M141 609q-32 0 -52 18t-20 51q0 32 20 50.5t52 18.5q33 0 53.5 -18.5t20.5 -50.5q0 -33 -20.5 -51t-53.5 -18zM87 0v500h112v-500h-112z" />
<glyph unicode="j" horiz-adv-x="278" d="M138 609q-33 0 -52.5 18t-19.5 51t19.5 51t52.5 18t53.5 -18.5t20.5 -50.5q0 -33 -20.5 -51t-53.5 -18zM-17 -200v76q49 0 74.5 24.5t25.5 66.5v533h112v-510q0 -85 -64 -137.5t-148 -52.5z" />
<glyph unicode="k" horiz-adv-x="733" d="M73 0v700h112v-473l324 273h166l-208 -161l213 -339h-137l-159 275l-199 -156v-119h-112z" />
<glyph unicode="l" horiz-adv-x="257" d="M73 0v700h112v-700h-112z" />
<glyph unicode="m" horiz-adv-x="1141" d="M73 0v500h126l-20 -206h6q15 95 77.5 158.5t165.5 63.5q93 -2 144.5 -56t64.5 -166h4q15 95 77.5 158.5t165.5 63.5q108 -2 160.5 -75t52.5 -224v-217h-112v200q0 122 -35.5 177.5t-113.5 54.5q-91 0 -143 -82.5t-52 -226.5v-123h-112v200q0 122 -35.5 177.5t-113.5 54.5 q-91 0 -143 -82.5t-52 -226.5v-123h-112z" />
<glyph unicode="n" horiz-adv-x="685" d="M73 0v500h126l-20 -206h6q15 95 77.5 158.5t165.5 63.5q108 -2 160.5 -75t52.5 -224v-217h-112v200q0 120 -35.5 176t-113.5 56q-91 0 -143 -82.5t-52 -226.5v-123h-112z" />
<glyph unicode="o" horiz-adv-x="711" d="M355 -16q-139 0 -224 73t-85 193t85 193t224 73q140 0 225 -73t85 -193t-85 -193t-225 -73zM355 67q94 0 151 50.5t57 132.5t-57 132.5t-151 50.5q-93 0 -150 -50.5t-57 -132.5t57 -132.5t150 -50.5z" />
<glyph unicode="p" horiz-adv-x="780" d="M428 516q129 0 212.5 -75t83.5 -195q0 -114 -78.5 -188t-186.5 -74q-100 0 -176 45t-94 133h-4v-362h-112v700h116l-22 -163h12q19 79 88 129t161 50zM414 433q-82 0 -140 -52t-58 -133q0 -79 58 -130t140 -51q89 0 142.5 50t53.5 131q0 83 -53.5 134t-142.5 51z" />
<glyph unicode="q" horiz-adv-x="780" d="M352 516q92 0 161 -50t88 -129h12l-22 163h116v-700h-112v362h-4q-18 -88 -94 -133t-176 -45q-108 0 -186.5 74t-78.5 188q0 120 83.5 195t212.5 75zM366 433q-89 0 -142.5 -51t-53.5 -134q0 -81 53.5 -131t142.5 -50q82 0 140 51t58 130q0 81 -58 133t-140 52z" />
<glyph unicode="r" horiz-adv-x="530" d="M73 0v500h126l-20 -186h10q20 110 88 156t217 46v-93q-163 0 -236 -64.5t-73 -190.5v-168h-112z" />
<glyph unicode="s" horiz-adv-x="675" d="M336 -16q-133 0 -268 39v94q131 -50 249 -50q107 0 153 15t46 55q0 30 -48.5 43t-117.5 18t-138 15t-117.5 44.5t-48.5 95.5q0 80 79 121.5t215 41.5q107 0 250 -28v-85q-147 31 -243 31q-188 0 -188 -68q0 -32 48.5 -46.5t117.5 -20t138.5 -15.5t118 -44.5t48.5 -94.5 q0 -81 -78.5 -121t-215.5 -40z" />
<glyph unicode="t" horiz-adv-x="441" d="M271 -10q-94 0 -122 39t-28 151v240h-80v80h80v120l112 20v-140h166v-80h-166v-210q0 -38 0.5 -54t3.5 -38t9 -29t18.5 -15.5t30 -10.5t45.5 -2q15 0 59 2v-53q-51 -20 -128 -20z" />
<glyph unicode="u" horiz-adv-x="685" d="M612 500v-500h-126l20 206h-6q-15 -95 -77.5 -158.5t-165.5 -63.5q-108 2 -160.5 75t-52.5 224v217h112v-200q0 -120 35.5 -176t113.5 -56q91 0 143 82.5t52 226.5v123h112z" />
<glyph unicode="v" horiz-adv-x="775" d="M300 0l-264 500h118l234 -443l233 443h118l-264 -500h-175z" />
<glyph unicode="w" horiz-adv-x="1054" d="M239 0l-214 500h108l184 -433l173 433h64l183 -433l184 433h108l-214 -500h-166l-126 306l-118 -306h-166z" />
<glyph unicode="x" horiz-adv-x="767" d="M26 0l279 251l-279 249h148l209 -188l210 188h148l-284 -253l275 -247h-147l-205 184l-207 -184h-147z" />
<glyph unicode="y" horiz-adv-x="755" d="M229 -200l112 195l-316 505h120l240 -412l235 412h110l-391 -700h-110z" />
<glyph unicode="z" horiz-adv-x="712" d="M30 0v33l451 383h-443v84h644v-31l-449 -384h439v-85h-642z" />
<glyph unicode="{" horiz-adv-x="683" d="M653 -80q-111 0 -180 11.5t-104.5 39t-47 61.5t-11.5 91q0 192 -280 192v68q133 2 187.5 49t54.5 136q0 47 6.5 77t26.5 57.5t58 42.5t100 23.5t153 8.5v-61q-132 0 -192 -32t-60 -116v-18q0 -37 -1 -55t-8 -46.5t-21.5 -44t-43.5 -31t-72 -23.5q103 -6 143 -64t40 -163 q0 -79 62 -110.5t190 -31.5v-61z" />
<glyph unicode="|" horiz-adv-x="232" d="M60 -170v890h112v-890h-112z" />
<glyph unicode="}" horiz-adv-x="705" d="M52 -80v61q128 0 190 31.5t62 110.5q0 105 40 163t143 64q-43 8 -72 23.5t-43.5 31t-22 44.5t-8 46t-0.5 55v18q0 84 -60 116t-192 32v61q91 0 153 -8.5t100 -23.5t58 -42.5t26.5 -57.5t6.5 -77q0 -89 54.5 -136t187.5 -49v-68q-280 0 -280 -192q0 -57 -11.5 -91 t-47 -61.5t-104.5 -39t-180 -11.5z" />
<glyph unicode="~" horiz-adv-x="441" d="M288 310q-31 0 -56 18t-44 36t-35 18q-28 0 -44.5 -18t-17.5 -53h-61q1 58 35 94t88 36q34 0 73 -36t62 -36q62 0 63 71h60q-1 -59 -35 -94.5t-88 -35.5z" />
<glyph unicode="&#xa1;" horiz-adv-x="260" d="M130 525q28 0 48 -18.5t20 -44.5t-20.5 -44.5t-47.5 -18.5t-47 18.5t-20 44.5q0 25 20.5 44t46.5 19zM72 213h115l10 -406h-135z" />
<glyph unicode="&#xa2;" horiz-adv-x="589" d="M351 523q-90 0 -146 -50.5t-56 -132.5t60 -132.5t156 -50.5q79 0 130 13t101 45v-91q-57 -26 -98 -37t-98 -13v-104h-157v121q-95 27 -151 93t-56 156q0 92 55 158t152 92v110h157v-95q95 -3 196 -48v-96q-61 34 -116 48t-129 14z" />
<glyph unicode="&#xa3;" horiz-adv-x="902" d="M523 622q-148 0 -207 -29.5t-62 -108.5q0 -39 18 -125h529v-99h-512q9 -110 -66 -166h622v-94h-760v94q110 46 113 131q0 13 -2 35h-105v99h84q-2 6 -7.5 24t-7.5 26t-6 23t-6 25t-3.5 23.5t-1.5 25.5q0 108 85.5 158.5t273.5 50.5q93 0 200 -10.5t150 -24.5v-97 q-31 12 -142.5 25.5t-186.5 13.5z" />
<glyph unicode="&#xa4;" horiz-adv-x="720" d="M140 37l-78 78l78 79q-46 55 -46 136q0 84 51 141l-83 84l78 79l101 -101q53 17 118 17q67 0 121 -16l100 100l79 -79l-82 -82q47 -54 47 -143q0 -83 -42 -138l77 -77l-79 -78l-92 92q-53 -19 -129 -19q-70 0 -125 20zM359 169q83 0 134.5 44.5t51.5 116.5t-51.5 116.5 t-134.5 44.5t-134.5 -44.5t-51.5 -116.5t51.5 -116.5t134.5 -44.5z" />
<glyph unicode="&#xa5;" horiz-adv-x="828" d="M843 700l-251 -336h197v-102h-273l-26 -35v-6h299v-102h-299v-119h-112v119h-299v102h299v5l-27 36h-272v102h196l-250 336h137l248 -336h48l248 336h137z" />
<glyph unicode="&#xa6;" horiz-adv-x="232" d="M60 313v407h112v-407h-112zM60 -170v418h112v-418h-112z" />
<glyph unicode="&#xa7;" horiz-adv-x="644" d="M320 0q-133 0 -268 39v79q66 -25 119 -34t149 -9q109 0 145.5 8.5t36.5 33.5q0 27 -35 43.5t-87.5 23t-113.5 17t-113.5 24t-87.5 44.5t-35 77q0 32 15.5 52t49.5 32q-65 42 -65 96q0 80 79 122t215 42q107 0 250 -28v-79q-123 26 -250 26q-111 0 -146.5 -10t-35.5 -45 q0 -18 35 -29t87.5 -15.5t113.5 -15.5t113.5 -26t87.5 -49.5t35 -85.5q0 -55 -56 -92q56 -42 56 -89q0 -75 -79 -113.5t-215 -38.5zM365 257q66 0 97 18.5t34 57.5q4 46 -36 70t-135 33q-36 2 -48 2q-123 0 -130 -78q-4 -45 35.5 -69t131.5 -32q38 -2 51 -2z" />
<glyph unicode="&#xa8;" horiz-adv-x="588" d="M149 538q-44 0 -71.5 23.5t-27.5 61.5t27.5 61.5t71.5 23.5q47 0 73 -23t26 -62t-26 -62t-73 -23zM439 538q-44 0 -71.5 23.5t-27.5 61.5t27.5 61.5t71.5 23.5q47 0 73 -23t26 -62t-26 -62t-73 -23z" />
<glyph unicode="&#xa9;" horiz-adv-x="965" d="M482 -16q-202 0 -317 99.5t-115 266.5q0 166 116 266t316 100q204 0 318.5 -98.5t114.5 -267.5q0 -167 -115 -266.5t-318 -99.5zM482 11q198 0 301.5 93.5t103.5 247.5q0 152 -104.5 244.5t-300.5 92.5q-192 0 -299 -94.5t-107 -246.5q0 -150 108 -243.5t298 -93.5z M487 85q-136 0 -218.5 73t-82.5 193t82.5 193t218.5 73q135 0 217.5 -65t82.5 -172h-114q-5 73 -56 117.5t-130 44.5q-85 0 -137 -52.5t-52 -138.5t52 -138.5t137 -52.5q81 0 132.5 46.5t55.5 123.5h113q0 -110 -82.5 -177.5t-218.5 -67.5z" />
<glyph unicode="&#xab;" horiz-adv-x="840" d="M259 500h150l-214 -250l214 -250h-150l-206 250zM788 500l-214 -250l214 -250h-150l-206 250l206 250h150z" />
<glyph unicode="&#xac;" horiz-adv-x="670" d="M557 76l-1 258h-526v83h610v-341h-83z" />
<glyph unicode="&#xad;" horiz-adv-x="460" d="M30 289v83h400v-83h-400z" />
<glyph unicode="&#xae;" horiz-adv-x="965" d="M482 -16q-202 0 -317 99.5t-115 266.5q0 166 116 266t316 100q204 0 318.5 -98.5t114.5 -267.5q0 -167 -115 -266.5t-318 -99.5zM482 11q198 0 301.5 93.5t103.5 247.5q0 152 -104.5 244.5t-300.5 92.5q-192 0 -299 -94.5t-107 -246.5q0 -150 108 -243.5t298 -93.5z M260 133v435h337q66 0 102.5 -32t36.5 -83q0 -52 -38 -81t-101 -29h-46q70 -4 111 -47.5t105 -162.5h-77q-67 120 -90 147q-40 41 -94 42h-178l1 -189h-69zM328 382h247q92 0 92 60q0 35 -22 51t-70 16h-247v-127z" />
<glyph unicode="&#xaf;" horiz-adv-x="632" d="M50 646v54h532v-54h-532z" />
<glyph unicode="&#xb0;" horiz-adv-x="518" d="M259 460q-86 0 -147.5 35t-61.5 90t61.5 90t147.5 35q93 0 151 -34.5t58 -90.5t-58 -90.5t-151 -34.5zM259 500q54 0 87 23t33 60q0 39 -33 63.5t-87 24.5q-53 0 -86 -24t-33 -62t33 -61.5t86 -23.5z" />
<glyph unicode="&#xb1;" horiz-adv-x="600" d="M248 196v153h-153v85h153v152h85v-152h152v-85h-152v-153h-85zM30 0v43h520v-43h-520z" />
<glyph unicode="&#xb4;" horiz-adv-x="387" d="M50 544v80l287 186v-102z" />
<glyph unicode="&#xb6;" horiz-adv-x="939" d="M394 -180v453h-129q-105 0 -170 55t-65 158q0 90 64.5 152t170.5 62h245v-880h-116zM797 -180v880h112v-880h-112z" />
<glyph unicode="&#xb7;" horiz-adv-x="240" d="M120 228q-26 0 -46.5 19t-20.5 44q0 26 20 44.5t47 18.5t47.5 -18.5t20.5 -44.5t-20 -44.5t-48 -18.5z" />
<glyph unicode="&#xb8;" horiz-adv-x="526" d="M150 -69q152 -7 239 -35t87 -73q0 -47 -118 -78t-308 -32v55q300 1 300 55q0 18 -27 30t-94.5 19.5t-178.5 8.5v53l58 101h95z" />
<glyph unicode="&#xbb;" horiz-adv-x="885" d="M53 500h150l206 -250l-206 -250h-150l214 250zM582 500l206 -250l-206 -250h-150l214 250l-214 250h150z" />
<glyph unicode="&#xbc;" horiz-adv-x="1603" d="M420 -22l688 744h104l-688 -744h-104zM295 161v397l-224 -147v76l265 152h36v-478h-77zM1384 61v90h-417v45l364 343h129v-324h76v-64h-76v-90h-76zM1066 215h318v300z" />
<glyph unicode="&#xbd;" horiz-adv-x="1734" d="M419 -22l688 744h104l-688 -744h-104zM295 161v397l-224 -147v76l265 152h36v-478h-77zM1177 61v41q22 11 77.5 39t86.5 44.5t80 43t78 46.5t59 43t44 44t14 39q0 46 -43 65.5t-147 19.5q-51 0 -127.5 -9.5t-97.5 -17.5v66q29 10 104.5 17t138.5 7q130 0 190 -29t60 -106 q0 -40 -34.5 -83.5t-91.5 -81.5t-117 -69t-123 -55h345v-64h-496z" />
<glyph unicode="&#xbe;" horiz-adv-x="1610" d="M427 -22l688 744h104l-688 -744h-104zM286 150q-158 0 -238 30v64q69 -30 216 -30q218 0 218 66q0 24 -17 39.5t-65.5 27t-124 18t-201.5 11.5v49q226 8 310 28t84 60q0 38 -48 56t-157 18q-55 0 -118.5 -8.5t-96.5 -22.5v64q84 31 222 31q61 0 104 -4.5t83 -18 t60.5 -40.5t20.5 -68q0 -28 -14.5 -49.5t-40.5 -33t-49 -19t-54.5 -10t-41.5 -3t-25 -0.5v-6l25 -1q25 0 40.5 -1.5t44.5 -5.5t48.5 -12t39.5 -20t30.5 -32t10.5 -46q0 -74 -68.5 -102.5t-197.5 -28.5zM1391 58v90h-417v45l364 343h129v-324h76v-64h-76v-90h-76zM1073 212 h318v300z" />
<glyph unicode="&#xbf;" horiz-adv-x="742" d="M442 525q26 0 46.5 -19t20.5 -44q0 -26 -20 -44.5t-47 -18.5t-47.5 18.5t-20.5 44.5t20 44.5t48 18.5zM478 275q1 -7 1 -18q0 -50 -32 -83t-78 -49.5t-92 -30.5t-78 -37t-32 -59q0 -71 55.5 -92t234.5 -21q102 0 245 21v-96q-134 -18 -280 -18q-193 0 -280.5 45 t-87.5 164q0 61 36 99t87.5 54t103.5 28t88 33.5t36 59.5h73z" />
<glyph unicode="&#xc0;" horiz-adv-x="1083" d="M548 744l-287 164v102l287 -186v-80zM36 0l431 700h149l430 -700h-126l-97 163h-564l-96 -163h-127zM315 256h453l-226 386z" />
<glyph unicode="&#xc1;" horiz-adv-x="1083" d="M518 744v80l287 186v-102zM36 0l431 700h149l430 -700h-126l-97 163h-564l-96 -163h-127zM315 256h453l-226 386z" />
<glyph unicode="&#xc2;" horiz-adv-x="1083" d="M829 755l-287 164l-287 -164v80l287 186l287 -186v-80zM616 700l430 -700h-126l-97 163h-564l-96 -163h-127l431 700h149zM315 256h453l-226 386z" />
<glyph unicode="&#xc3;" horiz-adv-x="1083" d="M627 772q-31 0 -56 18t-44 36t-35 18q-28 0 -44.5 -18t-17.5 -53h-61q1 58 35 94t88 36q34 0 73 -36t62 -36q62 0 63 71h60q-1 -59 -35 -94.5t-88 -35.5zM36 0l431 700h149l430 -700h-126l-97 163h-564l-96 -163h-127zM315 256h453l-226 386z" />
<glyph unicode="&#xc4;" horiz-adv-x="1083" d="M401 738q-44 0 -71.5 23.5t-27.5 61.5t27.5 61.5t71.5 23.5q47 0 73 -23t26 -62t-26 -62t-73 -23zM691 738q-44 0 -71.5 23.5t-27.5 61.5t27.5 61.5t71.5 23.5q47 0 73 -23t26 -62t-26 -62t-73 -23zM36 0l431 700h149l430 -700h-126l-97 163h-564l-96 -163h-127zM315 256 h453l-226 386z" />
<glyph unicode="&#xc5;" horiz-adv-x="1083" d="M542 738q-105 0 -179 29t-74 74t74 74t179 29q113 0 183 -28.5t70 -74.5t-70 -74.5t-183 -28.5zM542 789q40 0 65.5 13.5t25.5 37.5q0 53 -91 53q-40 0 -64.5 -13.5t-24.5 -38.5t24.5 -38.5t64.5 -13.5zM36 0l431 700h149l430 -700h-126l-97 163h-564l-96 -163h-127z M315 256h453l-226 386z" />
<glyph unicode="&#xc6;" horiz-adv-x="1421" d="M1340 618h-533v-226h524v-73h-524v-237h533v-82h-645v163h-396l-131 -163h-132l587 700h717v-82zM368 245h327v409l-332 -412z" />
<glyph unicode="&#xc7;" horiz-adv-x="934" d="M466 77q137 0 221 61.5t87 166.5h114q0 -142 -112.5 -230t-297.5 -91l-27 -53q152 -7 239 -35t87 -73q0 -47 -118 -78t-308 -32v55q300 1 300 55q0 18 -27 30t-94.5 19.5t-178.5 8.5v53l32 56q-155 21 -247 118t-92 242q0 165 116 265.5t306 100.5t306 -88t116 -233h-114 q-4 106 -88 167t-220 61q-141 0 -225.5 -73.5t-84.5 -199.5q0 -125 85 -199t225 -74z" />
<glyph unicode="&#xc8;" horiz-adv-x="810" d="M423 744l-287 164v102l287 -186v-80zM91 0v700h638v-93h-526v-209h517v-85h-517v-220h526v-93h-638z" />
<glyph unicode="&#xc9;" horiz-adv-x="810" d="M393 744v80l287 186v-102zM91 0v700h638v-93h-526v-209h517v-85h-517v-220h526v-93h-638z" />
<glyph unicode="&#xca;" horiz-adv-x="810" d="M704 755l-287 164l-287 -164v80l287 186l287 -186v-80zM729 607h-526v-209h517v-85h-517v-220h526v-93h-638v700h638v-93z" />
<glyph unicode="&#xcb;" horiz-adv-x="810" d="M276 738q-44 0 -71.5 23.5t-27.5 61.5t27.5 61.5t71.5 23.5q47 0 73 -23t26 -62t-26 -62t-73 -23zM566 738q-44 0 -71.5 23.5t-27.5 61.5t27.5 61.5t71.5 23.5q47 0 73 -23t26 -62t-26 -62t-73 -23zM91 0v700h638v-93h-526v-209h517v-85h-517v-220h526v-93h-638z" />
<glyph unicode="&#xcc;" horiz-adv-x="295" d="M153 744l-287 164v102l287 -186v-80zM91 0v700h112v-700h-112z" />
<glyph unicode="&#xcd;" horiz-adv-x="295" d="M123 744v80l287 186v-102zM91 0v700h112v-700h-112z" />
<glyph unicode="&#xce;" horiz-adv-x="295" d="M147 1021l287 -186v-80l-287 164l-287 -164v80zM91 0v700h112v-700h-112z" />
<glyph unicode="&#xcf;" horiz-adv-x="295" d="M6 738q-44 0 -71.5 23.5t-27.5 61.5t27.5 61.5t71.5 23.5q47 0 73 -23t26 -62t-26 -62t-73 -23zM296 738q-44 0 -71.5 23.5t-27.5 61.5t27.5 61.5t71.5 23.5q47 0 73 -23t26 -62t-26 -62t-73 -23zM91 0v700h112v-700h-112z" />
<glyph unicode="&#xd0;" horiz-adv-x="871" d="M417 700q192 0 300 -90t108 -260q0 -171 -108 -260.5t-300 -89.5h-326v309h-71v83h71v308h326zM417 93q137 0 216.5 69t79.5 188t-79.5 188t-216.5 69h-214v-215h317v-83h-317v-216h214z" />
<glyph unicode="&#xd1;" horiz-adv-x="967" d="M574 772q-31 0 -56 18t-44 36t-35 18q-28 0 -44.5 -18t-17.5 -53h-61q1 58 35 94t88 36q34 0 73 -36t62 -36q62 0 63 71h60q-1 -59 -35 -94.5t-88 -35.5zM91 0v700h114l559 -564v564h112v-700h-115l-558 563v-563h-112z" />
<glyph unicode="&#xd2;" horiz-adv-x="976" d="M495 744l-287 164v102l287 -186v-80zM488 -16q-203 0 -322.5 100t-119.5 266t119.5 266t322.5 100q204 0 323.5 -100t119.5 -266t-119.5 -266t-323.5 -100zM488 77q150 0 240.5 74t90.5 199q0 126 -90.5 199.5t-240.5 73.5q-149 0 -239.5 -73.5t-90.5 -199.5 q0 -125 90.5 -199t239.5 -74z" />
<glyph unicode="&#xd3;" horiz-adv-x="976" d="M465 744v80l287 186v-102zM488 -16q-203 0 -322.5 100t-119.5 266t119.5 266t322.5 100q204 0 323.5 -100t119.5 -266t-119.5 -266t-323.5 -100zM488 77q150 0 240.5 74t90.5 199q0 126 -90.5 199.5t-240.5 73.5q-149 0 -239.5 -73.5t-90.5 -199.5q0 -125 90.5 -199 t239.5 -74z" />
<glyph unicode="&#xd4;" horiz-adv-x="976" d="M776 755l-287 164l-287 -164v80l287 186l287 -186v-80zM488 716q204 0 323.5 -100t119.5 -266t-119.5 -266t-323.5 -100q-203 0 -322.5 100t-119.5 266t119.5 266t322.5 100zM488 77q150 0 240.5 74t90.5 199q0 126 -90.5 199.5t-240.5 73.5q-149 0 -239.5 -73.5 t-90.5 -199.5q0 -125 90.5 -199t239.5 -74z" />
<glyph unicode="&#xd5;" horiz-adv-x="976" d="M574 772q-31 0 -56 18t-44 36t-35 18q-28 0 -44.5 -18t-17.5 -53h-61q1 58 35 94t88 36q34 0 73 -36t62 -36q62 0 63 71h60q-1 -59 -35 -94.5t-88 -35.5zM488 -16q-203 0 -322.5 100t-119.5 266t119.5 266t322.5 100q204 0 323.5 -100t119.5 -266t-119.5 -266 t-323.5 -100zM488 77q150 0 240.5 74t90.5 199q0 126 -90.5 199.5t-240.5 73.5q-149 0 -239.5 -73.5t-90.5 -199.5q0 -125 90.5 -199t239.5 -74z" />
<glyph unicode="&#xd6;" horiz-adv-x="976" d="M348 738q-44 0 -71.5 23.5t-27.5 61.5t27.5 61.5t71.5 23.5q47 0 73 -23t26 -62t-26 -62t-73 -23zM638 738q-44 0 -71.5 23.5t-27.5 61.5t27.5 61.5t71.5 23.5q47 0 73 -23t26 -62t-26 -62t-73 -23zM488 -16q-203 0 -322.5 100t-119.5 266t119.5 266t322.5 100 q204 0 323.5 -100t119.5 -266t-119.5 -266t-323.5 -100zM488 77q150 0 240.5 74t90.5 199q0 126 -90.5 199.5t-240.5 73.5q-149 0 -239.5 -73.5t-90.5 -199.5q0 -125 90.5 -199t239.5 -74z" />
<glyph unicode="&#xd7;" horiz-adv-x="600" d="M135 118l-57 59l153 154l-154 155l59 57l154 -154l155 156l57 -59l-154 -155l154 -154l-57 -59l-155 154z" />
<glyph unicode="&#xd8;" horiz-adv-x="1024" d="M970 700l-131 -110q92 -95 92 -240q0 -166 -119.5 -266t-323.5 -100q-170 0 -284 72l-66 -56h-126l128 108q-94 96 -94 242q0 166 119.5 266t322.5 100q174 0 288 -74l68 58h126zM158 350q0 -104 64 -174l472 397q-83 50 -206 50q-149 0 -239.5 -73.5t-90.5 -199.5z M819 350q0 102 -61 171l-472 -396q84 -48 202 -48q150 0 240.5 74t90.5 199z" />
<glyph unicode="&#xd9;" horiz-adv-x="902" d="M457 744l-287 164v102l287 -186v-80zM451 -16q-89 0 -153.5 19.5t-112 64t-71 121t-23.5 186.5v325h112v-355q0 -139 59 -204t189 -65t188.5 65t58.5 204v355h112v-325q0 -215 -89 -303t-270 -88z" />
<glyph unicode="&#xda;" horiz-adv-x="902" d="M427 744v80l287 186v-102zM451 -16q-89 0 -153.5 19.5t-112 64t-71 121t-23.5 186.5v325h112v-355q0 -139 59 -204t189 -65t188.5 65t58.5 204v355h112v-325q0 -215 -89 -303t-270 -88z" />
<glyph unicode="&#xdb;" horiz-adv-x="902" d="M738 755l-287 164l-287 -164v80l287 186l287 -186v-80zM698 700h112v-325q0 -215 -89 -303t-270 -88q-89 0 -153.5 19.5t-112 64t-71 121t-23.5 186.5v325h112v-355q0 -139 59 -204t189 -65t188.5 65t58.5 204v355z" />
<glyph unicode="&#xdc;" horiz-adv-x="902" d="M310 738q-44 0 -71.5 23.5t-27.5 61.5t27.5 61.5t71.5 23.5q47 0 73 -23t26 -62t-26 -62t-73 -23zM600 738q-44 0 -71.5 23.5t-27.5 61.5t27.5 61.5t71.5 23.5q47 0 73 -23t26 -62t-26 -62t-73 -23zM451 -16q-89 0 -153.5 19.5t-112 64t-71 121t-23.5 186.5v325h112v-355 q0 -139 59 -204t189 -65t188.5 65t58.5 204v355h112v-325q0 -215 -89 -303t-270 -88z" />
<glyph unicode="&#xdd;" horiz-adv-x="868" d="M410 744v80l287 186v-102zM378 0v226l-353 474h137l272 -368l272 368h137l-353 -473v-227h-112z" />
<glyph unicode="&#xde;" horiz-adv-x="816" d="M561 500q106 0 170.5 -62t64.5 -152q0 -103 -65 -158t-170 -55h-354v-73h-116v700h115v-200h355zM536 156q66 0 107 37t41 93t-41 93.5t-107 37.5h-330l1 -261h329z" />
<glyph unicode="&#xdf;" horiz-adv-x="835" d="M439 348q183 -6 266.5 -44.5t83.5 -116.5q0 -50 -20 -86.5t-54.5 -59t-88.5 -36t-113 -18t-136 -3.5q-66 2 -101 4v92q48 -3 91 -3q183 0 251 21.5t68 92.5q0 47 -31.5 70.5t-115.5 37t-263 22.5v67q160 8 240 20.5t115 35.5t35 66q0 39 -23 58t-86.5 28t-190.5 9h-208 v-605h-112v700h330q55 0 90 -1t80.5 -4.5t74.5 -10.5t60 -19.5t48 -31t28.5 -46t11.5 -62.5q0 -88 -78.5 -128t-251.5 -40v-9z" />
<glyph unicode="&#xe0;" horiz-adv-x="672" d="M364 544l-287 164v102l287 -186v-80zM232 -16q-186 0 -186 132q0 34 19.5 61.5t55.5 45.5t74.5 30.5t90.5 20t88 11t82 7t59 4.5q-1 78 -39.5 108t-131.5 30q-103 0 -235 -57v85q146 54 275 54q243 0 243 -234v-282h-113l30 169h-8q-23 -92 -104 -138.5t-200 -46.5z M271 66q97 0 168 43t73 118q-17 -1 -55 -3.5t-65.5 -5t-64.5 -6.5t-63 -10.5t-50.5 -16t-37 -24t-12.5 -32.5q0 -30 28 -46.5t79 -16.5z" />
<glyph unicode="&#xe1;" horiz-adv-x="672" d="M334 544v80l287 186v-102zM232 -16q-186 0 -186 132q0 34 19.5 61.5t55.5 45.5t74.5 30.5t90.5 20t88 11t82 7t59 4.5q-1 78 -39.5 108t-131.5 30q-103 0 -235 -57v85q146 54 275 54q243 0 243 -234v-282h-113l30 169h-8q-23 -92 -104 -138.5t-200 -46.5zM271 66 q97 0 168 43t73 118q-17 -1 -55 -3.5t-65.5 -5t-64.5 -6.5t-63 -10.5t-50.5 -16t-37 -24t-12.5 -32.5q0 -30 28 -46.5t79 -16.5z" />
<glyph unicode="&#xe2;" horiz-adv-x="672" d="M358 821l287 -186v-80l-287 164l-287 -164v80zM384 516q243 0 243 -234v-282h-113l30 169h-8q-23 -92 -104 -138.5t-200 -46.5q-186 0 -186 132q0 34 19.5 61.5t55.5 45.5t74.5 30.5t90.5 20t88 11t82 7t59 4.5q-1 78 -39.5 108t-131.5 30q-103 0 -235 -57v85 q146 54 275 54zM271 66q97 0 168 43t73 118q-17 -1 -55 -3.5t-65.5 -5t-64.5 -6.5t-63 -10.5t-50.5 -16t-37 -24t-12.5 -32.5q0 -30 28 -46.5t79 -16.5z" />
<glyph unicode="&#xe3;" horiz-adv-x="672" d="M443 572q-31 0 -56 18t-44 36t-35 18q-28 0 -44.5 -18t-17.5 -53h-61q1 58 35 94t88 36q34 0 73 -36t62 -36q62 0 63 71h60q-1 -59 -35 -94.5t-88 -35.5zM232 -16q-186 0 -186 132q0 34 19.5 61.5t55.5 45.5t74.5 30.5t90.5 20t88 11t82 7t59 4.5q-1 78 -39.5 108 t-131.5 30q-103 0 -235 -57v85q146 54 275 54q243 0 243 -234v-282h-113l30 169h-8q-23 -92 -104 -138.5t-200 -46.5zM271 66q97 0 168 43t73 118q-17 -1 -55 -3.5t-65.5 -5t-64.5 -6.5t-63 -10.5t-50.5 -16t-37 -24t-12.5 -32.5q0 -30 28 -46.5t79 -16.5z" />
<glyph unicode="&#xe4;" horiz-adv-x="672" d="M217 538q-44 0 -71.5 23.5t-27.5 61.5t27.5 61.5t71.5 23.5q47 0 73 -23t26 -62t-26 -62t-73 -23zM507 538q-44 0 -71.5 23.5t-27.5 61.5t27.5 61.5t71.5 23.5q47 0 73 -23t26 -62t-26 -62t-73 -23zM232 -16q-186 0 -186 132q0 34 19.5 61.5t55.5 45.5t74.5 30.5t90.5 20 t88 11t82 7t59 4.5q-1 78 -39.5 108t-131.5 30q-103 0 -235 -57v85q146 54 275 54q243 0 243 -234v-282h-113l30 169h-8q-23 -92 -104 -138.5t-200 -46.5zM271 66q97 0 168 43t73 118q-17 -1 -55 -3.5t-65.5 -5t-64.5 -6.5t-63 -10.5t-50.5 -16t-37 -24t-12.5 -32.5 q0 -30 28 -46.5t79 -16.5z" />
<glyph unicode="&#xe5;" horiz-adv-x="672" d="M358 538q-105 0 -179 29t-74 74t74 74t179 29q113 0 183 -28.5t70 -74.5t-70 -74.5t-183 -28.5zM358 589q40 0 65.5 13.5t25.5 37.5q0 53 -91 53q-40 0 -64.5 -13.5t-24.5 -38.5t24.5 -38.5t64.5 -13.5zM232 -16q-186 0 -186 132q0 34 19.5 61.5t55.5 45.5t74.5 30.5 t90.5 20t88 11t82 7t59 4.5q-1 78 -39.5 108t-131.5 30q-103 0 -235 -57v85q146 54 275 54q243 0 243 -234v-282h-113l30 169h-8q-23 -92 -104 -138.5t-200 -46.5zM271 66q97 0 168 43t73 118q-17 -1 -55 -3.5t-65.5 -5t-64.5 -6.5t-63 -10.5t-50.5 -16t-37 -24t-12.5 -32.5 q0 -30 28 -46.5t79 -16.5z" />
<glyph unicode="&#xe6;" horiz-adv-x="1160" d="M232 -16q-186 0 -186 132q0 29 15 53.5t37.5 41.5t59 30.5t68.5 21.5t77.5 14.5t74 9.5t70 6.5t55.5 4.5q-1 83 -33.5 109.5t-125.5 26.5q-110 0 -235 -54v82q146 54 275 54q140 0 196 -86q83 86 233 86q134 0 216.5 -62.5t84.5 -164.5v-82h-498q12 -75 70.5 -107 t176.5 -32q29 0 56 2.5t44.5 6t39 10.5t31.5 11t30.5 13t27.5 12v-90q-79 -30 -134 -39.5t-145 -9.5q-112 0 -189 50.5t-101 137.5q-48 -188 -291 -188zM615 276l394 8q-2 83 -47.5 116t-148.5 33q-101 0 -147.5 -35t-50.5 -122zM269 66q98 0 166 42.5t69 119.5 q-17 -2 -56 -4.5t-65 -5t-63 -6.5t-61 -11t-48 -16.5t-35.5 -23.5t-11.5 -32q0 -30 27.5 -46.5t77.5 -16.5z" />
<glyph unicode="&#xe7;" horiz-adv-x="652" d="M346 -69q152 -7 239 -35t87 -73q0 -47 -118 -78t-308 -32v55q300 1 300 55q0 18 -27 30t-94.5 19.5t-178.5 8.5v53l34 60q-106 23 -170 91t-64 165q0 120 92 193t242 73q67 0 116 -11t110 -38v-96q-61 34 -116 48t-129 14q-90 0 -146 -50.5t-56 -132.5t60 -132.5 t156 -50.5q79 0 130 13t101 45v-91q-63 -29 -109 -39.5t-118 -10.5h-6z" />
<glyph unicode="&#xe8;" horiz-adv-x="693" d="M372 544l-287 164v102l287 -186v-80zM347 -16q-136 0 -218.5 73t-82.5 193t82.5 193t218.5 73q134 0 216.5 -62.5t84.5 -164.5v-82h-490q12 -75 67 -107t172 -32q29 0 56 2.5t44.5 6t39 10.5t31.5 11t30.5 13t27.5 12v-90q-79 -30 -134.5 -39.5t-144.5 -9.5zM156 276 l387 8q-2 67 -55.5 108t-140.5 41q-81 0 -133.5 -43t-57.5 -114z" />
<glyph unicode="&#xe9;" horiz-adv-x="693" d="M323 544v80l287 186v-102zM347 -16q-136 0 -218.5 73t-82.5 193t82.5 193t218.5 73q134 0 216.5 -62.5t84.5 -164.5v-82h-490q12 -75 67 -107t172 -32q29 0 56 2.5t44.5 6t39 10.5t31.5 11t30.5 13t27.5 12v-90q-79 -30 -134.5 -39.5t-144.5 -9.5zM156 276l387 8 q-2 67 -55.5 108t-140.5 41q-81 0 -133.5 -43t-57.5 -114z" />
<glyph unicode="&#xea;" horiz-adv-x="693" d="M634 555l-287 164l-287 -164v80l287 186l287 -186v-80zM648 289v-82h-490q12 -75 67 -107t172 -32q29 0 56 2.5t44.5 6t39 10.5t31.5 11t30.5 13t27.5 12v-90q-79 -30 -134.5 -39.5t-144.5 -9.5q-136 0 -218.5 73t-82.5 193t82.5 193t218.5 73q134 0 216.5 -62.5 t84.5 -164.5zM156 276l387 8q-2 67 -55.5 108t-140.5 41q-81 0 -133.5 -43t-57.5 -114z" />
<glyph unicode="&#xeb;" horiz-adv-x="693" d="M206 538q-44 0 -71.5 23.5t-27.5 61.5t27.5 61.5t71.5 23.5q47 0 73 -23t26 -62t-26 -62t-73 -23zM496 538q-44 0 -71.5 23.5t-27.5 61.5t27.5 61.5t71.5 23.5q47 0 73 -23t26 -62t-26 -62t-73 -23zM347 -16q-136 0 -218.5 73t-82.5 193t82.5 193t218.5 73 q134 0 216.5 -62.5t84.5 -164.5v-82h-490q12 -75 67 -107t172 -32q29 0 56 2.5t44.5 6t39 10.5t31.5 11t30.5 13t27.5 12v-90q-79 -30 -134.5 -39.5t-144.5 -9.5zM156 276l387 8q-2 67 -55.5 108t-140.5 41q-81 0 -133.5 -43t-57.5 -114z" />
<glyph unicode="&#xec;" horiz-adv-x="293" d="M154 544l-287 164v102l287 -186v-80zM92 0v500h112v-500h-112z" />
<glyph unicode="&#xed;" horiz-adv-x="293" d="M124 544v80l287 186v-102zM92 0v500h112v-500h-112z" />
<glyph unicode="&#xee;" horiz-adv-x="293" d="M148 821l287 -186v-80l-287 164l-287 -164v80zM92 0v500h112v-500h-112z" />
<glyph unicode="&#xef;" horiz-adv-x="293" d="M7 538q-44 0 -71.5 23.5t-27.5 61.5t27.5 61.5t71.5 23.5q47 0 73 -23t26 -62t-26 -62t-73 -23zM297 538q-44 0 -71.5 23.5t-27.5 61.5t27.5 61.5t71.5 23.5q47 0 73 -23t26 -62t-26 -62t-73 -23zM92 0v500h112v-500h-112z" />
<glyph unicode="&#xf0;" horiz-adv-x="815" d="M807 639l-109 -32q86 -102 86 -245q0 -188 -100.5 -281t-287.5 -93q-173 0 -269.5 63.5t-96.5 170.5q0 108 80 173t239 65q103 0 186.5 -44.5t134.5 -103.5q2 32 2 50q0 133 -72 217l-233 -68l-28 76l186 54q-75 43 -186 53l4 61q169 0 286 -84l149 43zM405 70 q108 0 168 36.5t83 117.5q-34 75 -114.5 128t-167.5 53q-104 0 -167.5 -46t-63.5 -122q0 -75 72 -121t190 -46z" />
<glyph unicode="&#xf1;" horiz-adv-x="685" d="M476 572q-31 0 -56 18t-44 36t-35 18q-28 0 -44.5 -18t-17.5 -53h-61q1 58 35 94t88 36q34 0 73 -36t62 -36q62 0 63 71h60q-1 -59 -35 -94.5t-88 -35.5zM73 0v500h126l-20 -206h6q15 95 77.5 158.5t165.5 63.5q108 -2 160.5 -75t52.5 -224v-217h-112v200 q0 120 -35.5 176t-113.5 56q-91 0 -143 -82.5t-52 -226.5v-123h-112z" />
<glyph unicode="&#xf2;" horiz-adv-x="711" d="M362 544l-287 164v102l287 -186v-80zM355 -16q-139 0 -224 73t-85 193t85 193t224 73q140 0 225 -73t85 -193t-85 -193t-225 -73zM355 67q94 0 151 50.5t57 132.5t-57 132.5t-151 50.5q-93 0 -150 -50.5t-57 -132.5t57 -132.5t150 -50.5z" />
<glyph unicode="&#xf3;" horiz-adv-x="711" d="M332 544v80l287 186v-102zM355 -16q-139 0 -224 73t-85 193t85 193t224 73q140 0 225 -73t85 -193t-85 -193t-225 -73zM355 67q94 0 151 50.5t57 132.5t-57 132.5t-151 50.5q-93 0 -150 -50.5t-57 -132.5t57 -132.5t150 -50.5z" />
<glyph unicode="&#xf4;" horiz-adv-x="711" d="M643 555l-287 164l-287 -164v80l287 186l287 -186v-80zM355 516q140 0 225 -73t85 -193t-85 -193t-225 -73q-139 0 -224 73t-85 193t85 193t224 73zM355 67q94 0 151 50.5t57 132.5t-57 132.5t-151 50.5q-93 0 -150 -50.5t-57 -132.5t57 -132.5t150 -50.5z" />
<glyph unicode="&#xf5;" horiz-adv-x="711" d="M441 572q-31 0 -56 18t-44 36t-35 18q-28 0 -44.5 -18t-17.5 -53h-61q1 58 35 94t88 36q34 0 73 -36t62 -36q62 0 63 71h60q-1 -59 -35 -94.5t-88 -35.5zM355 -16q-139 0 -224 73t-85 193t85 193t224 73q140 0 225 -73t85 -193t-85 -193t-225 -73zM355 67q94 0 151 50.5 t57 132.5t-57 132.5t-151 50.5q-93 0 -150 -50.5t-57 -132.5t57 -132.5t150 -50.5z" />
<glyph unicode="&#xf6;" horiz-adv-x="711" d="M215 538q-44 0 -71.5 23.5t-27.5 61.5t27.5 61.5t71.5 23.5q47 0 73 -23t26 -62t-26 -62t-73 -23zM505 538q-44 0 -71.5 23.5t-27.5 61.5t27.5 61.5t71.5 23.5q47 0 73 -23t26 -62t-26 -62t-73 -23zM355 -16q-139 0 -224 73t-85 193t85 193t224 73q140 0 225 -73t85 -193 t-85 -193t-225 -73zM355 67q94 0 151 50.5t57 132.5t-57 132.5t-151 50.5q-93 0 -150 -50.5t-57 -132.5t57 -132.5t150 -50.5z" />
<glyph unicode="&#xf7;" horiz-adv-x="600" d="M302 441q-26 0 -46.5 19t-20.5 44q0 26 20 44.5t47 18.5t47.5 -18.5t20.5 -44.5t-20 -44.5t-48 -18.5zM41 242v83h520v-83h-520zM302 -18q-26 0 -46.5 19t-20.5 44q0 26 20 44.5t47 18.5t47.5 -18.5t20.5 -44.5t-20 -44.5t-48 -18.5z" />
<glyph unicode="&#xf8;" horiz-adv-x="711" d="M721 500l-108 -91q52 -68 52 -159q0 -120 -85 -193t-225 -73q-111 0 -190 48l-38 -32h-126l102 86q-57 66 -57 164q0 120 85 193t224 73q117 0 197 -52l43 36h126zM148 250q0 -57 30 -101l301 253q-53 31 -124 31q-93 0 -150 -50.5t-57 -132.5zM563 250q0 54 -26 95 l-298 -251q51 -27 116 -27q94 0 151 50.5t57 132.5z" />
<glyph unicode="&#xf9;" horiz-adv-x="685" d="M324 544l-287 164v102l287 -186v-80zM612 500v-500h-126l20 206h-6q-15 -95 -77.5 -158.5t-165.5 -63.5q-108 2 -160.5 75t-52.5 224v217h112v-200q0 -120 35.5 -176t113.5 -56q91 0 143 82.5t52 226.5v123h112z" />
<glyph unicode="&#xfa;" horiz-adv-x="685" d="M294 544v80l287 186v-102zM612 500v-500h-126l20 206h-6q-15 -95 -77.5 -158.5t-165.5 -63.5q-108 2 -160.5 75t-52.5 224v217h112v-200q0 -120 35.5 -176t113.5 -56q91 0 143 82.5t52 226.5v123h112z" />
<glyph unicode="&#xfb;" horiz-adv-x="685" d="M605 555l-287 164l-287 -164v80l287 186l287 -186v-80zM500 500h112v-500h-126l20 206h-6q-15 -95 -77.5 -158.5t-165.5 -63.5q-108 2 -160.5 75t-52.5 224v217h112v-200q0 -120 35.5 -176t113.5 -56q91 0 143 82.5t52 226.5v123z" />
<glyph unicode="&#xfc;" horiz-adv-x="685" d="M177 538q-44 0 -71.5 23.5t-27.5 61.5t27.5 61.5t71.5 23.5q47 0 73 -23t26 -62t-26 -62t-73 -23zM467 538q-44 0 -71.5 23.5t-27.5 61.5t27.5 61.5t71.5 23.5q47 0 73 -23t26 -62t-26 -62t-73 -23zM612 500v-500h-126l20 206h-6q-15 -95 -77.5 -158.5t-165.5 -63.5 q-108 2 -160.5 75t-52.5 224v217h112v-200q0 -120 35.5 -176t113.5 -56q91 0 143 82.5t52 226.5v123h112z" />
<glyph unicode="&#xfd;" horiz-adv-x="755" d="M367 544v80l287 186v-102zM229 -200l112 195l-316 505h120l240 -412l235 412h110l-391 -700h-110z" />
<glyph unicode="&#xfe;" horiz-adv-x="769" d="M461 516q107 0 185 -76t78 -194q0 -114 -78.5 -188t-186.5 -74q-100 0 -176 45t-94 133h-4v-362h-112v900h116l-22 -363h12q18 89 98.5 134t183.5 45zM414 433q-82 0 -140 -52t-58 -133q0 -78 58 -129.5t140 -51.5q89 0 142.5 50.5t53.5 130.5q0 83 -53.5 134t-142.5 51z " />
<glyph unicode="&#xff;" horiz-adv-x="755" d="M250 538q-44 0 -71.5 23.5t-27.5 61.5t27.5 61.5t71.5 23.5q47 0 73 -23t26 -62t-26 -62t-73 -23zM540 538q-44 0 -71.5 23.5t-27.5 61.5t27.5 61.5t71.5 23.5q47 0 73 -23t26 -62t-26 -62t-73 -23zM229 -200l112 195l-316 505h120l240 -412l235 412h110l-391 -700h-110z " />
<glyph unicode="&#x100;" horiz-adv-x="1083" d="M276 846v54h532v-54h-532zM36 0l431 700h149l430 -700h-126l-97 163h-564l-96 -163h-127zM315 256h453l-226 386z" />
<glyph unicode="&#x101;" horiz-adv-x="672" d="M92 646v54h532v-54h-532zM232 -16q-186 0 -186 132q0 34 19.5 61.5t55.5 45.5t74.5 30.5t90.5 20t88 11t82 7t59 4.5q-1 78 -39.5 108t-131.5 30q-103 0 -235 -57v85q146 54 275 54q243 0 243 -234v-282h-113l30 169h-8q-23 -92 -104 -138.5t-200 -46.5zM271 66 q97 0 168 43t73 118q-17 -1 -55 -3.5t-65.5 -5t-64.5 -6.5t-63 -10.5t-50.5 -16t-37 -24t-12.5 -32.5q0 -30 28 -46.5t79 -16.5z" />
<glyph unicode="&#x102;" horiz-adv-x="1083" d="M542 751q-93 0 -152.5 41t-60.5 108h105q1 -40 30.5 -60.5t77.5 -20.5q104 0 110 81h103q-1 -69 -56.5 -109t-156.5 -40zM36 0l431 700h149l430 -700h-126l-97 163h-564l-96 -163h-127zM315 256h453l-226 386z" />
<glyph unicode="&#x103;" horiz-adv-x="672" d="M358 551q-93 0 -152.5 41t-60.5 108h105q1 -40 30.5 -60.5t77.5 -20.5q104 0 110 81h103q-1 -69 -56.5 -109t-156.5 -40zM232 -16q-186 0 -186 132q0 34 19.5 61.5t55.5 45.5t74.5 30.5t90.5 20t88 11t82 7t59 4.5q-1 78 -39.5 108t-131.5 30q-103 0 -235 -57v85 q146 54 275 54q243 0 243 -234v-282h-113l30 169h-8q-23 -92 -104 -138.5t-200 -46.5zM271 66q97 0 168 43t73 118q-17 -1 -55 -3.5t-65.5 -5t-64.5 -6.5t-63 -10.5t-50.5 -16t-37 -24t-12.5 -32.5q0 -30 28 -46.5t79 -16.5z" />
<glyph unicode="&#x104;" horiz-adv-x="1083" d="M1042 -164q40 0 84 10l-3 -60q-52 -16 -110 -16q-85 0 -144 36.5t-59 94.5q0 62 68 130l15 14l-70 118h-564l-96 -163h-127l431 700h149l430 -700h-126l-1 1q-35 -35 -35 -70q0 -41 44 -68t114 -27zM315 256h453l-226 386z" />
<glyph unicode="&#x105;" horiz-adv-x="672" d="M683 -164q40 0 84 10l-3 -60q-52 -16 -110 -16q-85 0 -144 36.5t-59 94.5q0 62 68 130l1 1l24 137h-8q-23 -92 -104 -138.5t-200 -46.5q-186 0 -186 132q0 34 19.5 61.5t55.5 45.5t74.5 30.5t90.5 20t88 11t82 7t59 4.5q-1 78 -39.5 108t-131.5 30q-103 0 -235 -57v85 q146 54 275 54q243 0 243 -234v-282h-68q-34 -35 -34 -69q0 -41 44 -68t114 -27zM271 66q97 0 168 43t73 118q-17 -1 -55 -3.5t-65.5 -5t-64.5 -6.5t-63 -10.5t-50.5 -16t-37 -24t-12.5 -32.5q0 -30 28 -46.5t79 -16.5z" />
<glyph unicode="&#x106;" horiz-adv-x="934" d="M442 744v80l287 186v-102zM466 -16q-190 0 -306 100.5t-116 265.5t116 265.5t306 100.5t306 -88t116 -233h-114q-4 106 -88 167t-220 61q-141 0 -225.5 -73.5t-84.5 -199.5q0 -125 85 -199t225 -74q137 0 221 61.5t87 166.5h114q0 -145 -116 -233t-306 -88z" />
<glyph unicode="&#x107;" horiz-adv-x="652" d="M356 544v80l287 186v-102zM379 -16q-145 0 -239 73.5t-94 192.5q0 120 92 193t242 73q67 0 116 -11t110 -38v-96q-61 34 -116 48t-129 14q-90 0 -146 -50.5t-56 -132.5t60 -132.5t156 -50.5q79 0 130 13t101 45v-91q-63 -29 -109 -39.5t-118 -10.5z" />
<glyph unicode="&#x10a;" horiz-adv-x="934" d="M468 738q-44 0 -71.5 23.5t-27.5 61.5t27.5 61.5t71.5 23.5q47 0 73 -23t26 -62t-26 -62t-73 -23zM466 -16q-190 0 -306 100.5t-116 265.5t116 265.5t306 100.5t306 -88t116 -233h-114q-4 106 -88 167t-220 61q-141 0 -225.5 -73.5t-84.5 -199.5q0 -125 85 -199t225 -74 q137 0 221 61.5t87 166.5h114q0 -145 -116 -233t-306 -88z" />
<glyph unicode="&#x10b;" horiz-adv-x="652" d="M380 538q-44 0 -71.5 23.5t-27.5 61.5t27.5 61.5t71.5 23.5q47 0 73 -23t26 -62t-26 -62t-73 -23zM379 -16q-145 0 -239 73.5t-94 192.5q0 120 92 193t242 73q67 0 116 -11t110 -38v-96q-61 34 -116 48t-129 14q-90 0 -146 -50.5t-56 -132.5t60 -132.5t156 -50.5 q79 0 130 13t101 45v-91q-63 -29 -109 -39.5t-118 -10.5z" />
<glyph unicode="&#x10c;" horiz-adv-x="934" d="M753 941l-287 -186l-287 186v80l287 -164l287 164v-80zM466 77q137 0 221 61.5t87 166.5h114q0 -145 -116 -233t-306 -88t-306 100.5t-116 265.5t116 265.5t306 100.5t306 -88t116 -233h-114q-4 106 -88 167t-220 61q-141 0 -225.5 -73.5t-84.5 -199.5q0 -125 85 -199 t225 -74z" />
<glyph unicode="&#x10d;" horiz-adv-x="652" d="M380 657l287 164v-80l-287 -186l-287 186v80zM46 250q0 120 92 193t242 73q67 0 116 -11t110 -38v-96q-61 34 -116 48t-129 14q-90 0 -146 -50.5t-56 -132.5t60 -132.5t156 -50.5q79 0 130 13t101 45v-91q-63 -29 -109 -39.5t-118 -10.5q-145 0 -239 73.5t-94 192.5z" />
<glyph unicode="&#x10e;" horiz-adv-x="871" d="M746 941l-287 -186l-287 186v80l287 -164l287 164v-80zM417 700q192 0 300 -90t108 -260q0 -171 -108 -260.5t-300 -89.5h-326v700h326zM417 93q137 0 216.5 69t79.5 188t-79.5 188t-216.5 69h-214v-514h214z" />
<glyph unicode="&#x10f;" horiz-adv-x="916" d="M352 -16q-129 0 -212.5 75t-83.5 195q0 114 78.5 188t186.5 74q100 0 176 -45t94 -133h4v362h112v-700h-116l22 163h-12q-19 -79 -88 -129t-161 -50zM721 429l63 270h103l-113 -270h-53zM366 67q82 0 140 52t58 133q0 79 -58 130t-140 51q-89 0 -142.5 -50t-53.5 -131 q0 -83 53.5 -134t142.5 -51z" />
<glyph unicode="&#x110;" horiz-adv-x="871" d="M417 700q192 0 300 -90t108 -260q0 -171 -108 -260.5t-300 -89.5h-326v309h-71v83h71v308h326zM417 93q137 0 216.5 69t79.5 188t-79.5 188t-216.5 69h-214v-215h317v-83h-317v-216h214z" />
<glyph unicode="&#x111;" horiz-adv-x="779" d="M717 639v-103h-10v-536h-116l22 163h-12q-19 -79 -88 -129t-161 -50q-129 0 -212.5 75t-83.5 195q0 114 78.5 188t186.5 74q100 0 176 -45t94 -133h4v198h-336v103h336v61h112v-61h10zM366 67q82 0 140 52t58 133q0 79 -58 130t-140 51q-89 0 -142.5 -50t-53.5 -131 q0 -83 53.5 -134t142.5 -51z" />
<glyph unicode="&#x112;" horiz-adv-x="810" d="M151 846v54h532v-54h-532zM91 0v700h638v-93h-526v-209h517v-85h-517v-220h526v-93h-638z" />
<glyph unicode="&#x113;" horiz-adv-x="693" d="M81 646v54h532v-54h-532zM347 -16q-136 0 -218.5 73t-82.5 193t82.5 193t218.5 73q134 0 216.5 -62.5t84.5 -164.5v-82h-490q12 -75 67 -107t172 -32q29 0 56 2.5t44.5 6t39 10.5t31.5 11t30.5 13t27.5 12v-90q-79 -30 -134.5 -39.5t-144.5 -9.5zM156 276l387 8 q-2 67 -55.5 108t-140.5 41q-81 0 -133.5 -43t-57.5 -114z" />
<glyph unicode="&#x116;" horiz-adv-x="810" d="M417 738q-44 0 -71.5 23.5t-27.5 61.5t27.5 61.5t71.5 23.5q47 0 73 -23t26 -62t-26 -62t-73 -23zM91 0v700h638v-93h-526v-209h517v-85h-517v-220h526v-93h-638z" />
<glyph unicode="&#x117;" horiz-adv-x="693" d="M347 538q-44 0 -71.5 23.5t-27.5 61.5t27.5 61.5t71.5 23.5q47 0 73 -23t26 -62t-26 -62t-73 -23zM347 -16q-136 0 -218.5 73t-82.5 193t82.5 193t218.5 73q134 0 216.5 -62.5t84.5 -164.5v-82h-490q12 -75 67 -107t172 -32q29 0 56 2.5t44.5 6t39 10.5t31.5 11t30.5 13 t27.5 12v-90q-79 -30 -134.5 -39.5t-144.5 -9.5zM156 276l387 8q-2 67 -55.5 108t-140.5 41q-81 0 -133.5 -43t-57.5 -114z" />
<glyph unicode="&#x118;" horiz-adv-x="810" d="M729 607h-526v-209h517v-85h-517v-220h526v-93h-309q-34 -35 -34 -69q0 -41 44 -68t114 -27q40 0 84 10l-3 -60q-52 -16 -110 -16q-85 0 -144 36.5t-59 94.5q0 48 40 99h-261v700h638v-93z" />
<glyph unicode="&#x119;" horiz-adv-x="693" d="M648 289v-82h-490q12 -75 67 -107t172 -32q29 0 56 2.5t44.5 6t39 10.5t31.5 11t30.5 13t27.5 12v-90q-70 -26 -120 -36.5t-119 -12.5q-21 -27 -21 -53q0 -41 44 -68t114 -27q40 0 84 10l-3 -60q-52 -16 -110 -16q-85 0 -144 36.5t-59 94.5q0 39 29 84q-125 7 -200 79 t-75 186q0 120 82.5 193t218.5 73q134 0 216.5 -62.5t84.5 -164.5zM156 276l387 8q-2 67 -55.5 108t-140.5 41q-81 0 -133.5 -43t-57.5 -114z" />
<glyph unicode="&#x11a;" horiz-adv-x="810" d="M704 941l-287 -186l-287 186v80l287 -164l287 164v-80zM729 607h-526v-209h517v-85h-517v-220h526v-93h-638v700h638v-93z" />
<glyph unicode="&#x11b;" horiz-adv-x="693" d="M634 741l-287 -186l-287 186v80l287 -164l287 164v-80zM648 289v-82h-490q12 -75 67 -107t172 -32q29 0 56 2.5t44.5 6t39 10.5t31.5 11t30.5 13t27.5 12v-90q-79 -30 -134.5 -39.5t-144.5 -9.5q-136 0 -218.5 73t-82.5 193t82.5 193t218.5 73q134 0 216.5 -62.5 t84.5 -164.5zM156 276l387 8q-2 67 -55.5 108t-140.5 41q-81 0 -133.5 -43t-57.5 -114z" />
<glyph unicode="&#x11e;" horiz-adv-x="971" d="M478 751q-93 0 -152.5 41t-60.5 108h105q1 -40 30.5 -60.5t77.5 -20.5q104 0 110 81h103q-1 -69 -56.5 -109t-156.5 -40zM478 -16q-190 0 -306 100.5t-116 265.5t116 265.5t306 100.5q179 0 290 -74.5t119 -197.5h-109q-9 85 -87.5 132t-214.5 47q-139 0 -223.5 -73.5 t-84.5 -199.5q0 -125 85 -199t225 -74q132 0 215 54t93 147h-413v87h525v-365h-104l6 123q-50 -69 -136 -104t-186 -35z" />
<glyph unicode="&#x11f;" horiz-adv-x="767" d="M428 551q-93 0 -152.5 41t-60.5 108h105q1 -40 30.5 -60.5t77.5 -20.5q104 0 110 81h103q-1 -69 -56.5 -109t-156.5 -40zM376 -200q-18 0 -35 1t-30 1.5t-28 3t-23.5 3.5t-23.5 5.5t-20.5 5.5t-21 7t-19.5 7t-22 8t-22 9v101q41 -31 110.5 -50t141.5 -19q106 0 157.5 46 t52.5 123l5 98q-24 -79 -91.5 -124t-154.5 -45q-130 0 -213 76t-83 197q0 115 78 188.5t186 73.5q100 0 176.5 -45t94.5 -133h13l-11 162h102v-440q0 -130 -86 -195t-233 -65zM365 67q82 0 140 52t58 133q0 79 -58 130t-140 51q-89 0 -142.5 -50t-53.5 -131q0 -83 53.5 -134 t142.5 -51z" />
<glyph unicode="&#x120;" horiz-adv-x="971" d="M478 738q-44 0 -71.5 23.5t-27.5 61.5t27.5 61.5t71.5 23.5q47 0 73 -23t26 -62t-26 -62t-73 -23zM478 -16q-190 0 -306 100.5t-116 265.5t116 265.5t306 100.5q179 0 290 -74.5t119 -197.5h-109q-9 85 -87.5 132t-214.5 47q-139 0 -223.5 -73.5t-84.5 -199.5 q0 -125 85 -199t225 -74q132 0 215 54t93 147h-413v87h525v-365h-104l6 123q-50 -69 -136 -104t-186 -35z" />
<glyph unicode="&#x121;" horiz-adv-x="767" d="M428 538q-44 0 -71.5 23.5t-27.5 61.5t27.5 61.5t71.5 23.5q47 0 73 -23t26 -62t-26 -62t-73 -23zM376 -200q-18 0 -35 1t-30 1.5t-28 3t-23.5 3.5t-23.5 5.5t-20.5 5.5t-21 7t-19.5 7t-22 8t-22 9v101q41 -31 110.5 -50t141.5 -19q106 0 157.5 46t52.5 123l5 98 q-24 -79 -91.5 -124t-154.5 -45q-130 0 -213 76t-83 197q0 115 78 188.5t186 73.5q100 0 176.5 -45t94.5 -133h13l-11 162h102v-440q0 -130 -86 -195t-233 -65zM365 67q82 0 140 52t58 133q0 79 -58 130t-140 51q-89 0 -142.5 -50t-53.5 -131q0 -83 53.5 -134t142.5 -51z " />
<glyph unicode="&#x122;" horiz-adv-x="971" d="M478 -16q-190 0 -306 100.5t-116 265.5t116 265.5t306 100.5q179 0 290 -74.5t119 -197.5h-109q-9 85 -87.5 132t-214.5 47q-139 0 -223.5 -73.5t-84.5 -199.5q0 -125 85 -199t225 -74q132 0 215 54t93 147h-413v87h525v-365h-104l6 123q-50 -69 -136 -104t-186 -35z M394 -350l63 270h103l-113 -270h-53z" />
<glyph unicode="&#x123;" horiz-adv-x="767" d="M376 -200q-18 0 -35 1t-30 1.5t-28 3t-23.5 3.5t-23.5 5.5t-20.5 5.5t-21 7t-19.5 7t-22 8t-22 9v101q41 -31 110.5 -50t141.5 -19q106 0 157.5 46t52.5 123l5 98q-24 -79 -91.5 -124t-154.5 -45q-130 0 -213 76t-83 197q0 115 78 188.5t186 73.5q100 0 176.5 -45 t94.5 -133h13l-11 162h102v-440q0 -130 -86 -195t-233 -65zM365 67q82 0 140 52t58 133q0 79 -58 130t-140 51q-89 0 -142.5 -50t-53.5 -131q0 -83 53.5 -134t142.5 -51zM261 -532l63 270h103l-113 -270h-53z" />
<glyph unicode="&#x126;" horiz-adv-x="908" d="M865 642v-88h-49v-554h-112v314h-501v-314h-112v554h-49v88h49v58h112v-58h501v58h112v-58h49zM704 407v147h-501v-147h501z" />
<glyph unicode="&#x127;" horiz-adv-x="685" d="M428 516q108 -2 160.5 -75t52.5 -224v-217h-112v200q0 120 -35.5 176t-113.5 56q-91 0 -143 -82.5t-52 -226.5v-123h-112v536h-58v103h58v61h126l-3 -61h277v-103h-282l-12 -242h6q15 95 77.5 158.5t165.5 63.5z" />
<glyph unicode="&#x12a;" horiz-adv-x="295" d="M-119 846v54h532v-54h-532zM91 0v700h112v-700h-112z" />
<glyph unicode="&#x12b;" horiz-adv-x="293" d="M-118 646v54h532v-54h-532zM92 0v500h112v-500h-112z" />
<glyph unicode="&#x12e;" horiz-adv-x="295" d="M278 -164q40 0 84 10l-3 -60q-52 -16 -110 -16q-85 0 -144 36.5t-59 94.5q0 48 45 105v694h112v-700h-49q-34 -35 -34 -69q0 -41 44 -68t114 -27z" />
<glyph unicode="&#x12f;" horiz-adv-x="284" d="M141 609q-32 0 -52 18t-20 51q0 32 20 50.5t52 18.5q33 0 53.5 -18.5t20.5 -50.5q0 -33 -20.5 -51t-53.5 -18zM254 -164q40 0 84 10l-3 -60q-52 -16 -110 -16q-85 0 -144 36.5t-59 94.5q0 61 65 127v472h112v-500h-69q-34 -35 -34 -69q0 -41 44 -68t114 -27z" />
<glyph unicode="&#x130;" horiz-adv-x="295" d="M150 738q-44 0 -71.5 23.5t-27.5 61.5t27.5 61.5t71.5 23.5q47 0 73 -23t26 -62t-26 -62t-73 -23zM91 0v700h112v-700h-112z" />
<glyph unicode="&#x131;" horiz-adv-x="293" d="M92 0v500h112v-500h-112z" />
<glyph unicode="&#x136;" horiz-adv-x="950" d="M91 0v700h112v-443l508 443h154l-291 -243l312 -457h-135l-261 389l-287 -239v-150h-112zM329 -350l63 270h103l-113 -270h-53z" />
<glyph unicode="&#x137;" horiz-adv-x="733" d="M73 0v700h112v-473l324 273h166l-208 -161l213 -339h-137l-159 275l-199 -156v-119h-112zM238 -350l63 270h103l-113 -270h-53z" />
<glyph unicode="&#x139;" horiz-adv-x="755" d="M136 744v80l287 186v-102zM91 0v700h112v-607h511v-93h-623z" />
<glyph unicode="&#x13a;" horiz-adv-x="257" d="M106 744v80l287 186v-102zM73 0v700h112v-700h-112z" />
<glyph unicode="&#x13b;" horiz-adv-x="755" d="M91 0v700h112v-607h511v-93h-623zM279 -350l63 270h103l-113 -270h-53z" />
<glyph unicode="&#x13c;" horiz-adv-x="257" d="M73 0v700h112v-700h-112zM14 -350l63 270h103l-113 -270h-53z" />
<glyph unicode="&#x13d;" horiz-adv-x="755" d="M91 0v700h112v-607h511v-93h-623zM338 429l63 270h103l-113 -270h-53z" />
<glyph unicode="&#x13e;" horiz-adv-x="433" d="M73 0v700h112v-700h-112zM224 429l63 270h103l-113 -270h-53z" />
<glyph unicode="&#x141;" horiz-adv-x="755" d="M203 93h511v-93h-623v315l-78 -45l-47 82l125 72v276h112v-212l228 131l48 -81l-276 -159v-286z" />
<glyph unicode="&#x142;" horiz-adv-x="548" d="M525 552l-209 -120v-432h-112v367l-145 -83l-36 68l181 104v244h112v-180l172 99z" />
<glyph unicode="&#x143;" horiz-adv-x="967" d="M465 744v80l287 186v-102zM91 0v700h114l559 -564v564h112v-700h-115l-558 563v-563h-112z" />
<glyph unicode="&#x144;" horiz-adv-x="685" d="M367 544v80l287 186v-102zM73 0v500h126l-20 -206h6q15 95 77.5 158.5t165.5 63.5q108 -2 160.5 -75t52.5 -224v-217h-112v200q0 120 -35.5 176t-113.5 56q-91 0 -143 -82.5t-52 -226.5v-123h-112z" />
<glyph unicode="&#x145;" horiz-adv-x="967" d="M91 0v700h114l559 -564v564h112v-700h-115l-558 563v-563h-112zM379 -350l63 270h103l-113 -270h-53z" />
<glyph unicode="&#x146;" horiz-adv-x="685" d="M73 0v500h126l-20 -206h6q15 95 77.5 158.5t165.5 63.5q108 -2 160.5 -75t52.5 -224v-217h-112v200q0 120 -35.5 176t-113.5 56q-91 0 -143 -82.5t-52 -226.5v-123h-112zM239 -350l63 270h103l-113 -270h-53z" />
<glyph unicode="&#x147;" horiz-adv-x="967" d="M776 941l-287 -186l-287 186v80l287 -164l287 164v-80zM764 700h112v-700h-115l-558 563v-563h-112v700h114l559 -564v564z" />
<glyph unicode="&#x148;" horiz-adv-x="685" d="M391 657l287 164v-80l-287 -186l-287 186v80zM428 516q108 -2 160.5 -75t52.5 -224v-217h-112v200q0 120 -35.5 176t-113.5 56q-91 0 -143 -82.5t-52 -226.5v-123h-112v500h126l-20 -206h6q15 95 77.5 158.5t165.5 63.5z" />
<glyph unicode="&#x14a;" horiz-adv-x="967" d="M764 700h112v-700q0 -82 -37 -124t-126 -59t-265 -17v89q155 0 242.5 20.5t87.5 57.5q0 14 -17 33l-558 563v-563h-112v700h114l559 -564v564z" />
<glyph unicode="&#x14b;" horiz-adv-x="685" d="M428 516q108 -2 160.5 -75t52.5 -224v-217q0 -46 -5 -74.5t-21 -53t-40.5 -37t-71 -21.5t-105 -11.5t-149.5 -2.5v89q164 0 222 14t58 65v32v200q0 120 -35.5 176t-113.5 56q-91 0 -143 -82.5t-52 -226.5v-123h-112v500h126l-20 -206h6q15 95 77.5 158.5t165.5 63.5z" />
<glyph unicode="&#x14c;" horiz-adv-x="976" d="M223 846v54h532v-54h-532zM488 -16q-203 0 -322.5 100t-119.5 266t119.5 266t322.5 100q204 0 323.5 -100t119.5 -266t-119.5 -266t-323.5 -100zM488 77q150 0 240.5 74t90.5 199q0 126 -90.5 199.5t-240.5 73.5q-149 0 -239.5 -73.5t-90.5 -199.5q0 -125 90.5 -199 t239.5 -74z" />
<glyph unicode="&#x14d;" horiz-adv-x="711" d="M99 646v54h532v-54h-532zM355 -16q-139 0 -224 73t-85 193t85 193t224 73q140 0 225 -73t85 -193t-85 -193t-225 -73zM355 67q94 0 151 50.5t57 132.5t-57 132.5t-151 50.5q-93 0 -150 -50.5t-57 -132.5t57 -132.5t150 -50.5z" />
<glyph unicode="&#x150;" horiz-adv-x="976" d="M353 744v80l287 186v-102zM603 744v80l287 186v-102zM488 -16q-203 0 -322.5 100t-119.5 266t119.5 266t322.5 100q204 0 323.5 -100t119.5 -266t-119.5 -266t-323.5 -100zM488 77q150 0 240.5 74t90.5 199q0 126 -90.5 199.5t-240.5 73.5q-149 0 -239.5 -73.5 t-90.5 -199.5q0 -125 90.5 -199t239.5 -74z" />
<glyph unicode="&#x151;" horiz-adv-x="711" d="M220 544v80l287 186v-102zM470 544v80l287 186v-102zM355 -16q-139 0 -224 73t-85 193t85 193t224 73q140 0 225 -73t85 -193t-85 -193t-225 -73zM355 67q94 0 151 50.5t57 132.5t-57 132.5t-151 50.5q-93 0 -150 -50.5t-57 -132.5t57 -132.5t150 -50.5z" />
<glyph unicode="&#x152;" horiz-adv-x="1553" d="M1472 607h-526v-209h517v-85h-517v-220h526v-93h-638v104q-122 -120 -346 -120q-203 0 -322.5 100t-119.5 266t119.5 266t322.5 100q224 0 346 -120v104h638v-93zM488 77q150 0 240.5 74t90.5 199q0 126 -90.5 199.5t-240.5 73.5q-149 0 -239.5 -73.5t-90.5 -199.5 q0 -125 90.5 -199t239.5 -74z" />
<glyph unicode="&#x153;" horiz-adv-x="1216" d="M1171 289v-82h-490q12 -75 67 -107t172 -32q29 0 56 2.5t44.5 6t39 10.5t31.5 11t30.5 13t27.5 12v-90q-79 -30 -134.5 -39.5t-144.5 -9.5q-84 0 -149.5 29t-104.5 83q-82 -112 -261 -112q-139 0 -224 73t-85 193t85 193t224 73q179 0 261 -112q39 54 104.5 83t149.5 29 q134 0 216.5 -62.5t84.5 -164.5zM355 67q94 0 151 50.5t57 132.5t-57 132.5t-151 50.5q-93 0 -150 -50.5t-57 -132.5t57 -132.5t150 -50.5zM679 276l387 8q-2 67 -55.5 108t-140.5 41q-81 0 -133.5 -43t-57.5 -114z" />
<glyph unicode="&#x154;" horiz-adv-x="941" d="M428 744v80l287 186v-102zM91 0v700h543q106 0 165.5 -51t59.5 -134t-61 -129.5t-164 -46.5h-74q48 -3 87 -19t69 -38.5t63.5 -68.5t60 -90t69.5 -123h-125q-97 174 -128 216q-52 69 -113 84q-25 5 -55 5h-286l1 -305h-112zM202 401h397q148 0 148 96q0 57 -35 83 t-113 26h-398z" />
<glyph unicode="&#x155;" horiz-adv-x="530" d="M267 544v80l287 186v-102zM73 0v500h126l-20 -186h10q20 110 88 156t217 46v-93q-163 0 -236 -64.5t-73 -190.5v-168h-112z" />
<glyph unicode="&#x156;" horiz-adv-x="941" d="M91 0v700h543q106 0 165.5 -51t59.5 -134t-61 -129.5t-164 -46.5h-74q48 -3 87 -19t69 -38.5t63.5 -68.5t60 -90t69.5 -123h-125q-97 174 -128 216q-52 69 -113 84q-25 5 -55 5h-286l1 -305h-112zM202 401h397q148 0 148 96q0 57 -35 83t-113 26h-398zM344 -350l63 270 h103l-113 -270h-53z" />
<glyph unicode="&#x157;" horiz-adv-x="530" d="M73 0v500h126l-20 -186h10q20 110 88 156t217 46v-93q-163 0 -236 -64.5t-73 -190.5v-168h-112zM11 -350l63 270h103l-113 -270h-53z" />
<glyph unicode="&#x158;" horiz-adv-x="941" d="M739 941l-287 -186l-287 186v80l287 -164l287 164v-80zM560 339q48 -3 87 -19t69 -38.5t63.5 -68.5t60 -90t69.5 -123h-125q-97 174 -128 216q-52 69 -113 84q-25 5 -55 5h-286l1 -305h-112v700h543q106 0 165.5 -51t59.5 -134t-61 -129.5t-164 -46.5h-74zM202 401h397 q148 0 148 96q0 57 -35 83t-113 26h-398z" />
<glyph unicode="&#x159;" horiz-adv-x="530" d="M291 657l287 164v-80l-287 -186l-287 186v80zM189 314q20 110 88 156t217 46v-93q-163 0 -236 -64.5t-73 -190.5v-168h-112v500h126l-20 -186h10z" />
<glyph unicode="&#x15a;" horiz-adv-x="864" d="M414 744v80l287 186v-102zM429 -16q-176 0 -280.5 65.5t-102.5 171.5h114q-1 -66 72 -105t189 -39q284 2 284 119q0 42 -35.5 66t-92.5 33t-126 13.5t-138 12.5t-126 24.5t-92.5 56t-35.5 99.5q0 103 98.5 159t262.5 56q172 0 276 -64.5t105 -172.5h-115q1 66 -71.5 105 t-188.5 39q-123 0 -187.5 -28t-64.5 -81q0 -36 35.5 -56.5t92.5 -28t125.5 -12t137 -15t125.5 -30t92.5 -63t35.5 -108.5q0 -105 -106 -161t-283 -56z" />
<glyph unicode="&#x15b;" horiz-adv-x="675" d="M314 544v80l287 186v-102zM336 -16q-133 0 -268 39v94q131 -50 249 -50q107 0 153 15t46 55q0 30 -48.5 43t-117.5 18t-138 15t-117.5 44.5t-48.5 95.5q0 80 79 121.5t215 41.5q107 0 250 -28v-85q-147 31 -243 31q-188 0 -188 -68q0 -32 48.5 -46.5t117.5 -20 t138.5 -15.5t118 -44.5t48.5 -94.5q0 -81 -78.5 -121t-215.5 -40z" />
<glyph unicode="&#x15e;" horiz-adv-x="864" d="M461 -69q152 -7 239 -35t87 -73q0 -47 -118 -78t-308 -32v55q300 1 300 55q0 18 -27 30t-94.5 19.5t-178.5 8.5v53l29 51q-159 7 -252.5 71.5t-91.5 164.5h114q-1 -66 72 -105t189 -39q284 2 284 119q0 42 -35.5 66t-92.5 33t-126 13.5t-138 12.5t-126 24.5t-92.5 56 t-35.5 99.5q0 103 98.5 159t262.5 56q172 0 276 -64.5t105 -172.5h-115q1 66 -71.5 105t-188.5 39q-123 0 -187.5 -28t-64.5 -81q0 -36 35.5 -56.5t92.5 -28t125.5 -12t137 -15t125.5 -30t92.5 -63t35.5 -108.5q0 -95 -88.5 -150.5t-240.5 -64.5z" />
<glyph unicode="&#x15f;" horiz-adv-x="675" d="M361 -69q152 -7 239 -35t87 -73q0 -47 -118 -78t-308 -32v55q300 1 300 55q0 18 -27 30t-94.5 19.5t-178.5 8.5v53l30 51q-123 9 -223 38v94q131 -50 249 -50q107 0 153 15t46 55q0 30 -48.5 43t-117.5 18t-138 15t-117.5 44.5t-48.5 95.5q0 80 79 121.5t215 41.5 q107 0 250 -28v-85q-147 31 -243 31q-188 0 -188 -68q0 -32 48.5 -46.5t117.5 -20t138.5 -15.5t118 -44.5t48.5 -94.5q0 -73 -63.5 -112.5t-177.5 -46.5z" />
<glyph unicode="&#x160;" horiz-adv-x="864" d="M725 941l-287 -186l-287 186v80l287 -164l287 164v-80zM174 514q0 -36 35.5 -56.5t92.5 -28t125.5 -12t137 -15t125.5 -30t92.5 -63t35.5 -108.5q0 -105 -106 -161t-283 -56q-176 0 -280.5 65.5t-102.5 171.5h114q-1 -66 72 -105t189 -39q284 2 284 119q0 42 -35.5 66 t-92.5 33t-126 13.5t-138 12.5t-126 24.5t-92.5 56t-35.5 99.5q0 103 98.5 159t262.5 56q172 0 276 -64.5t105 -172.5h-115q1 66 -71.5 105t-188.5 39q-123 0 -187.5 -28t-64.5 -81z" />
<glyph unicode="&#x161;" horiz-adv-x="675" d="M625 741l-287 -186l-287 186v80l287 -164l287 164v-80zM159 366q0 -32 48.5 -46.5t117.5 -20t138.5 -15.5t118 -44.5t48.5 -94.5q0 -81 -78.5 -121t-215.5 -40q-133 0 -268 39v94q131 -50 249 -50q107 0 153 15t46 55q0 30 -48.5 43t-117.5 18t-138 15t-117.5 44.5 t-48.5 95.5q0 80 79 121.5t215 41.5q107 0 250 -28v-85q-147 31 -243 31q-188 0 -188 -68z" />
<glyph unicode="&#x162;" horiz-adv-x="896" d="M859 607h-356v-572h1l-1 -2v-33h-17l-35 -69q152 -7 239 -35t87 -73q0 -47 -118 -78t-308 -32v55q300 1 300 55q0 18 -27 30t-94.5 19.5t-178.5 8.5v53l40 70v603h-355v93h823v-93z" />
<glyph unicode="&#x163;" horiz-adv-x="441" d="M231 -69q152 -7 239 -35t87 -73q0 -47 -118 -78t-308 -32v55q300 1 300 55q0 18 -27 30t-94.5 19.5t-178.5 8.5v53l42 74q-31 18 -41.5 57t-10.5 115v240h-80v80h80v120l112 20v-140h166v-80h-166v-210q0 -38 0.5 -54t3.5 -38t9 -29t18.5 -15.5t30 -10.5t45.5 -2 q15 0 59 2v-53q-51 -20 -128 -20h-10z" />
<glyph unicode="&#x164;" horiz-adv-x="896" d="M735 941l-287 -186l-287 186v80l287 -164l287 164v-80zM36 700h823v-93h-356v-607h-112v607h-355v93z" />
<glyph unicode="&#x165;" horiz-adv-x="580" d="M419 429l63 270h103l-113 -270h-53zM271 -10q-94 0 -122 39t-28 151v240h-80v80h80v120l112 20v-140h166v-80h-166v-210q0 -38 0.5 -54t3.5 -38t9 -29t18.5 -15.5t30 -10.5t45.5 -2q15 0 59 2v-53q-51 -20 -128 -20z" />
<glyph unicode="&#x166;" horiz-adv-x="896" d="M859 607h-356v-235h195v-83h-195v-289h-112v289h-193v83h193v235h-355v93h823v-93z" />
<glyph unicode="&#x167;" horiz-adv-x="441" d="M401 230h-168v-20q0 -38 0.5 -54t3.5 -38t9 -29t18.5 -15.5t30 -10.5t45.5 -2q15 0 59 2v-53q-51 -20 -128 -20q-94 0 -122 39t-28 151v50h-79v87h79v103h-80v80h80v120l112 20v-140h166v-80h-166v-103h168v-87z" />
<glyph unicode="&#x16a;" horiz-adv-x="902" d="M185 846v54h532v-54h-532zM451 -16q-89 0 -153.5 19.5t-112 64t-71 121t-23.5 186.5v325h112v-355q0 -139 59 -204t189 -65t188.5 65t58.5 204v355h112v-325q0 -215 -89 -303t-270 -88z" />
<glyph unicode="&#x16b;" horiz-adv-x="685" d="M77 646v54h532v-54h-532zM612 500v-500h-126l20 206h-6q-15 -95 -77.5 -158.5t-165.5 -63.5q-108 2 -160.5 75t-52.5 224v217h112v-200q0 -120 35.5 -176t113.5 -56q91 0 143 82.5t52 226.5v123h112z" />
<glyph unicode="&#x16e;" horiz-adv-x="902" d="M451 738q-105 0 -179 29t-74 74t74 74t179 29q113 0 183 -28.5t70 -74.5t-70 -74.5t-183 -28.5zM451 789q40 0 65.5 13.5t25.5 37.5q0 53 -91 53q-40 0 -64.5 -13.5t-24.5 -38.5t24.5 -38.5t64.5 -13.5zM451 -16q-89 0 -153.5 19.5t-112 64t-71 121t-23.5 186.5v325h112 v-355q0 -139 59 -204t189 -65t188.5 65t58.5 204v355h112v-325q0 -215 -89 -303t-270 -88z" />
<glyph unicode="&#x16f;" horiz-adv-x="685" d="M318 538q-105 0 -179 29t-74 74t74 74t179 29q113 0 183 -28.5t70 -74.5t-70 -74.5t-183 -28.5zM318 589q40 0 65.5 13.5t25.5 37.5q0 53 -91 53q-40 0 -64.5 -13.5t-24.5 -38.5t24.5 -38.5t64.5 -13.5zM612 500v-500h-126l20 206h-6q-15 -95 -77.5 -158.5t-165.5 -63.5 q-108 2 -160.5 75t-52.5 224v217h112v-200q0 -120 35.5 -176t113.5 -56q91 0 143 82.5t52 226.5v123h112z" />
<glyph unicode="&#x170;" horiz-adv-x="902" d="M315 744v80l287 186v-102zM565 744v80l287 186v-102zM451 -16q-89 0 -153.5 19.5t-112 64t-71 121t-23.5 186.5v325h112v-355q0 -139 59 -204t189 -65t188.5 65t58.5 204v355h112v-325q0 -215 -89 -303t-270 -88z" />
<glyph unicode="&#x171;" horiz-adv-x="685" d="M182 544v80l287 186v-102zM432 544v80l287 186v-102zM612 500v-500h-126l20 206h-6q-15 -95 -77.5 -158.5t-165.5 -63.5q-108 2 -160.5 75t-52.5 224v217h112v-200q0 -120 35.5 -176t113.5 -56q91 0 143 82.5t52 226.5v123h112z" />
<glyph unicode="&#x172;" horiz-adv-x="902" d="M698 700h112v-325q0 -205 -81.5 -294.5t-245.5 -95.5q-21 -29 -21 -54q0 -41 44 -68t114 -27q40 0 84 10l-3 -60q-52 -16 -110 -16q-85 0 -144 36.5t-59 94.5q0 39 29 84q-164 7 -245 96.5t-81 293.5v325h112v-355q0 -139 59 -204t189 -65t188.5 65t58.5 204v355z" />
<glyph unicode="&#x173;" horiz-adv-x="685" d="M668 -164q40 0 84 10l-3 -60q-52 -16 -110 -16q-85 0 -144 36.5t-59 94.5q0 54 51 112l19 193h-6q-15 -95 -77.5 -158.5t-165.5 -63.5q-108 2 -160.5 75t-52.5 224v217h112v-200q0 -120 35.5 -176t113.5 -56q91 0 143 82.5t52 226.5v123h112v-500h-68q-34 -35 -34 -69 q0 -41 44 -68t114 -27z" />
<glyph unicode="&#x174;" horiz-adv-x="1259" d="M917 755l-287 164l-287 -164v80l287 186l287 -186v-80zM1083 700h117l-259 -700h-118l-193 564l-194 -564h-118l-259 700h116l207 -567l200 567h94l200 -567z" />
<glyph unicode="&#x175;" horiz-adv-x="1054" d="M808 555l-287 164l-287 -164v80l287 186l287 -186v-80zM921 500h108l-214 -500h-166l-126 306l-118 -306h-166l-214 500h108l184 -433l173 433h64l183 -433z" />
<glyph unicode="&#x176;" horiz-adv-x="868" d="M721 755l-287 164l-287 -164v80l287 186l287 -186v-80zM706 700h137l-353 -473v-227h-112v226l-353 474h137l272 -368z" />
<glyph unicode="&#x177;" horiz-adv-x="755" d="M678 555l-287 164l-287 -164v80l287 186l287 -186v-80zM620 500h110l-391 -700h-110l112 195l-316 505h120l240 -412z" />
<glyph unicode="&#x178;" horiz-adv-x="868" d="M293 738q-44 0 -71.5 23.5t-27.5 61.5t27.5 61.5t71.5 23.5q47 0 73 -23t26 -62t-26 -62t-73 -23zM583 738q-44 0 -71.5 23.5t-27.5 61.5t27.5 61.5t71.5 23.5q47 0 73 -23t26 -62t-26 -62t-73 -23zM378 0v226l-353 474h137l272 -368l272 368h137l-353 -473v-227h-112z " />
<glyph unicode="&#x179;" horiz-adv-x="879" d="M396 744v80l287 186v-102zM46 0v65l616 542h-608v93h769v-62l-611 -545h621v-93h-787z" />
<glyph unicode="&#x17a;" horiz-adv-x="712" d="M349 544v80l287 186v-102zM30 0v33l451 383h-443v84h644v-31l-449 -384h439v-85h-642z" />
<glyph unicode="&#x17b;" horiz-adv-x="879" d="M420 738q-44 0 -71.5 23.5t-27.5 61.5t27.5 61.5t71.5 23.5q47 0 73 -23t26 -62t-26 -62t-73 -23zM46 0v65l616 542h-608v93h769v-62l-611 -545h621v-93h-787z" />
<glyph unicode="&#x17c;" horiz-adv-x="712" d="M373 538q-44 0 -71.5 23.5t-27.5 61.5t27.5 61.5t71.5 23.5q47 0 73 -23t26 -62t-26 -62t-73 -23zM30 0v33l451 383h-443v84h644v-31l-449 -384h439v-85h-642z" />
<glyph unicode="&#x17d;" horiz-adv-x="879" d="M707 941l-287 -186l-287 186v80l287 -164l287 164v-80zM212 93h621v-93h-787v65l616 542h-608v93h769v-62z" />
<glyph unicode="&#x17e;" horiz-adv-x="712" d="M660 741l-287 -186l-287 186v80l287 -164l287 164v-80zM682 500v-31l-449 -384h439v-85h-642v33l451 383h-443v84h644z" />
<glyph unicode="&#x218;" horiz-adv-x="864" d="M429 -16q-176 0 -280.5 65.5t-102.5 171.5h114q-1 -66 72 -105t189 -39q284 2 284 119q0 42 -35.5 66t-92.5 33t-126 13.5t-138 12.5t-126 24.5t-92.5 56t-35.5 99.5q0 103 98.5 159t262.5 56q172 0 276 -64.5t105 -172.5h-115q1 66 -71.5 105t-188.5 39 q-123 0 -187.5 -28t-64.5 -81q0 -36 35.5 -56.5t92.5 -28t125.5 -12t137 -15t125.5 -30t92.5 -63t35.5 -108.5q0 -105 -106 -161t-283 -56zM330 -350l63 270h103l-113 -270h-53z" />
<glyph unicode="&#x219;" horiz-adv-x="675" d="M336 -16q-133 0 -268 39v94q131 -50 249 -50q107 0 153 15t46 55q0 30 -48.5 43t-117.5 18t-138 15t-117.5 44.5t-48.5 95.5q0 80 79 121.5t215 41.5q107 0 250 -28v-85q-147 31 -243 31q-188 0 -188 -68q0 -32 48.5 -46.5t117.5 -20t138.5 -15.5t118 -44.5t48.5 -94.5 q0 -81 -78.5 -121t-215.5 -40zM241 -341l63 270h103l-113 -270h-53z" />
<glyph unicode="&#x21a;" horiz-adv-x="896" d="M391 0v607h-355v93h823v-93h-356v-607h-112zM335 -350l63 270h103l-113 -270h-53z" />
<glyph unicode="&#x21b;" horiz-adv-x="441" d="M271 -10q-94 0 -122 39t-28 151v240h-80v80h80v120l112 20v-140h166v-80h-166v-210q0 -38 0.5 -54t3.5 -38t9 -29t18.5 -15.5t30 -10.5t45.5 -2q15 0 59 2v-53q-51 -20 -128 -20zM122 -341l63 270h103l-113 -270h-53z" />
<glyph unicode="&#x2c6;" horiz-adv-x="674" d="M337 821l287 -186v-80l-287 164l-287 -164v80z" />
<glyph unicode="&#x2c7;" horiz-adv-x="674" d="M337 657l287 164v-80l-287 -186l-287 186v80z" />
<glyph unicode="&#x2d8;" horiz-adv-x="526" d="M263 551q-93 0 -152.5 41t-60.5 108h105q1 -40 30.5 -60.5t77.5 -20.5q104 0 110 81h103q-1 -69 -56.5 -109t-156.5 -40z" />
<glyph unicode="&#x2d9;" horiz-adv-x="298" d="M149 538q-44 0 -71.5 23.5t-27.5 61.5t27.5 61.5t71.5 23.5q47 0 73 -23t26 -62t-26 -62t-73 -23z" />
<glyph unicode="&#x2da;" horiz-adv-x="606" d="M303 538q-105 0 -179 29t-74 74t74 74t179 29q113 0 183 -28.5t70 -74.5t-70 -74.5t-183 -28.5zM303 589q40 0 65.5 13.5t25.5 37.5q0 53 -91 53q-40 0 -64.5 -13.5t-24.5 -38.5t24.5 -38.5t64.5 -13.5z" />
<glyph unicode="&#x2db;" horiz-adv-x="445" d="M260 -230q-85 0 -144 36.5t-59 94.5q0 62 68 130q30 30 48 30q15 0 15 -21q0 -17 -11 -28q-46 -42 -46 -81q0 -41 44 -68t114 -27q40 0 84 10l-3 -60q-52 -16 -110 -16z" />
<glyph unicode="&#x2dc;" horiz-adv-x="481" d="M308 572q-31 0 -56 18t-44 36t-35 18q-28 0 -44.5 -18t-17.5 -53h-61q1 58 35 94t88 36q34 0 73 -36t62 -36q62 0 63 71h60q-1 -59 -35 -94.5t-88 -35.5z" />
<glyph unicode="&#x2dd;" horiz-adv-x="637" d="M50 544v80l287 186v-102zM300 544v80l287 186v-102z" />
<glyph unicode="&#x300;" d="M-50 544l-287 164v102l287 -186v-80z" />
<glyph unicode="&#x301;" d="M-337 544v80l287 186v-102z" />
<glyph unicode="&#x302;" d="M-337 821l287 -186v-80l-287 164l-287 -164v80z" />
<glyph unicode="&#x303;" d="M-173 572q-31 0 -56 18t-44 36t-35 18q-28 0 -44.5 -18t-17.5 -53h-61q1 58 35 94t88 36q34 0 73 -36t62 -36q62 0 63 71h60q-1 -59 -35 -94.5t-88 -35.5z" />
<glyph unicode="&#x304;" d="M-582 646v54h532v-54h-532z" />
<glyph unicode="&#x306;" d="M-263 551q-93 0 -152.5 41t-60.5 108h105q1 -40 30.5 -60.5t77.5 -20.5q104 0 110 81h103q-1 -69 -56.5 -109t-156.5 -40z" />
<glyph unicode="&#x307;" d="M-62 538q-44 0 -71.5 23.5t-27.5 61.5t27.5 61.5t71.5 23.5q47 0 73 -23t26 -62t-26 -62t-73 -23z" />
<glyph unicode="&#x308;" d="M-439 538q-44 0 -71.5 23.5t-27.5 61.5t27.5 61.5t71.5 23.5q47 0 73 -23t26 -62t-26 -62t-73 -23zM-149 538q-44 0 -71.5 23.5t-27.5 61.5t27.5 61.5t71.5 23.5q47 0 73 -23t26 -62t-26 -62t-73 -23z" />
<glyph unicode="&#x30a;" d="M-303 538q-105 0 -179 29t-74 74t74 74t179 29q113 0 183 -28.5t70 -74.5t-70 -74.5t-183 -28.5zM-303 589q40 0 65.5 13.5t25.5 37.5q0 53 -91 53q-40 0 -64.5 -13.5t-24.5 -38.5t24.5 -38.5t64.5 -13.5z" />
<glyph unicode="&#x30b;" d="M-587 544v80l287 186v-102zM-337 544v80l287 186v-102z" />
<glyph unicode="&#x30c;" d="M-337 657l287 164v-80l-287 -186l-287 186v80z" />
<glyph unicode="&#x312;" d="M-50 798l-63 -270h-103l113 270h53z" />
<glyph unicode="&#x326;" d="M-238 -341l63 270h103l-113 -270h-53z" />
<glyph unicode="&#x327;" d="M-376 -69q152 -7 239 -35t87 -73q0 -47 -118 -78t-308 -32v55q300 1 300 55q0 18 -27 30t-94.5 19.5t-178.5 8.5v53l58 101h95z" />
<glyph unicode="&#x328;" d="M-185 -230q-85 0 -144 36.5t-59 94.5q0 62 68 130q30 30 48 30q15 0 15 -21q0 -17 -11 -28q-46 -42 -46 -81q0 -41 44 -68t114 -27q40 0 84 10l-3 -60q-52 -16 -110 -16z" />
<glyph unicode="&#x335;" d="M-550 289v83h500v-83h-500z" />
<glyph unicode="&#x336;" d="M-1050 289v83h1000v-83h-1000z" />
<glyph unicode="&#x337;" d="M-770 0l594 500h126l-594 -500h-126z" />
<glyph unicode="&#x338;" d="M-1008 0l832 700h126l-832 -700h-126z" />
<glyph unicode="&#x401;" horiz-adv-x="810" d="M276 738q-44 0 -71.5 23.5t-27.5 61.5t27.5 61.5t71.5 23.5q47 0 73 -23t26 -62t-26 -62t-73 -23zM566 738q-44 0 -71.5 23.5t-27.5 61.5t27.5 61.5t71.5 23.5q47 0 73 -23t26 -62t-26 -62t-73 -23zM91 0v700h638v-93h-526v-209h517v-85h-517v-220h526v-93h-638z" />
<glyph unicode="&#x410;" horiz-adv-x="1083" d="M36 0l431 700h149l430 -700h-126l-97 163h-564l-96 -163h-127zM315 256h453l-226 386z" />
<glyph unicode="&#x411;" horiz-adv-x="881" d="M584 427q105 0 170 -55t65 -158q0 -90 -64.5 -152t-170.5 -62h-493v607h-1v93h643v-93h-530v-180h381zM559 94q78 0 113 28.5t35 91.5q0 62 -35 90t-113 28h-357v-238h357z" />
<glyph unicode="&#x412;" horiz-adv-x="926" d="M91 0v700h513q106 0 165.5 -51t59.5 -134q0 -147 -194 -159q101 -2 159 -46t58 -124q0 -84 -62 -135t-164 -51h-535zM203 390h366q148 0 148 106q0 111 -148 111h-367zM204 94h387q148 0 148 117q0 110 -148 110h-388z" />
<glyph unicode="&#x413;" horiz-adv-x="744" d="M91 0v700h643v-93h-531v-607h-112z" />
<glyph unicode="&#x414;" horiz-adv-x="927" d="M12 -103v205q105 0 111 81l44 518l616 -1v-598h124v-205h-112v103h-671v-103h-112zM201 93h470v514h-400l-34 -415q-4 -54 -36 -99z" />
<glyph unicode="&#x415;" horiz-adv-x="810" d="M91 0v700h638v-93h-526v-209h517v-85h-517v-220h526v-93h-638z" />
<glyph unicode="&#x416;" horiz-adv-x="1216" d="M10 0l428 350l-429 350h160l383 -334v334h112v-334l383 334h160l-430 -350l429 -350h-159l-383 334v-334h-112v334l-383 -334h-159z" />
<glyph unicode="&#x417;" horiz-adv-x="821" d="M389 -16q-228 0 -348 44v93q48 -20 140.5 -32t175.5 -12q167 0 243 24t76 73q0 36 -25 58t-95.5 39t-181 26.5t-295.5 17.5v72q226 8 353 24.5t175.5 41t48.5 63.5q0 55 -70 81.5t-230 26.5q-79 0 -172.5 -12.5t-142.5 -32.5v93q59 22 152 33.5t173 11.5q71 0 123.5 -3.5 t106 -15.5t87.5 -32.5t55 -56t21 -84.5q0 -31 -12.5 -56.5t-35.5 -42.5t-47.5 -30t-58.5 -20t-57 -11.5t-55 -5.5t-40.5 -1.5t-23.5 -0.5v-9h31q31 -1 49.5 -2t55.5 -5t62 -11t56.5 -20t50 -30t32 -44t13.5 -60q0 -56 -27.5 -94.5t-82 -59.5t-121.5 -29.5t-159 -8.5z" />
<glyph unicode="&#x418;" horiz-adv-x="967" d="M876 0h-112v563l-558 -563h-115v700h112v-564l559 564h114v-700z" />
<glyph unicode="&#x419;" horiz-adv-x="967" d="M478 751q-93 0 -152.5 41t-60.5 108h105q1 -40 30.5 -60.5t77.5 -20.5q104 0 110 81h103q-1 -69 -56.5 -109t-156.5 -40zM876 0h-112v563l-558 -563h-115v700h112v-564l559 564h114v-700z" />
<glyph unicode="&#x41a;" horiz-adv-x="766" d="M91 0v700h112v-334l383 334h160l-429 -351l428 -349h-159l-383 334v-334h-112z" />
<glyph unicode="&#x41b;" horiz-adv-x="873" d="M34 -16q-16 0 -24 1l7 80q3 0 8 -0.5t7 -0.5q41 0 64.5 22t26.5 60l47 554h613v-700h-112v607h-397l-37 -452q-7 -79 -66.5 -125t-136.5 -46z" />
<glyph unicode="&#x41c;" horiz-adv-x="1065" d="M91 0v700h139l302 -529l303 529h138v-700h-112v544l-319 -544h-19l-320 540v-540h-112z" />
<glyph unicode="&#x41d;" horiz-adv-x="908" d="M91 0v700h112v-293h501v293h112v-700h-112v314h-501v-314h-112z" />
<glyph unicode="&#x41e;" horiz-adv-x="976" d="M488 -16q-203 0 -322.5 100t-119.5 266t119.5 266t322.5 100q204 0 323.5 -100t119.5 -266t-119.5 -266t-323.5 -100zM488 77q150 0 240.5 74t90.5 199q0 126 -90.5 199.5t-240.5 73.5q-149 0 -239.5 -73.5t-90.5 -199.5q0 -125 90.5 -199t239.5 -74z" />
<glyph unicode="&#x41f;" horiz-adv-x="825" d="M91 0v700h643v-700h-112v607h-419v-607h-112z" />
<glyph unicode="&#x420;" horiz-adv-x="881" d="M91 0v700h493q106 0 170.5 -62t64.5 -152q0 -103 -65 -158t-170 -55h-381v-273h-112zM202 368h357q78 0 113 28t35 90q0 63 -35 91.5t-113 28.5h-357v-238z" />
<glyph unicode="&#x421;" horiz-adv-x="934" d="M466 -16q-190 0 -306 100.5t-116 265.5t116 265.5t306 100.5t306 -88t116 -233h-114q-4 106 -88 167t-220 61q-141 0 -225.5 -73.5t-84.5 -199.5q0 -125 85 -199t225 -74q137 0 221 61.5t87 166.5h114q0 -145 -116 -233t-306 -88z" />
<glyph unicode="&#x422;" horiz-adv-x="896" d="M391 0v607h-355v93h823v-93h-356v-607h-112z" />
<glyph unicode="&#x423;" horiz-adv-x="755" d="M229 -1l112 195l-316 505h120l240 -412l235 412h110l-391 -700h-110z" />
<glyph unicode="&#x424;" horiz-adv-x="711" d="M665 355q0 -106 -67 -176t-182 -86v-93h-122v93q-114 16 -181 86t-67 176t67 176t181 86v83h122v-83q115 -16 182 -86t67 -176zM416 178q68 16 107.5 63t39.5 114t-39.5 114t-107.5 63v-354zM148 355q0 -67 39.5 -114t106.5 -62v352q-67 -15 -106.5 -62t-39.5 -114z" />
<glyph unicode="&#x425;" horiz-adv-x="939" d="M64 0l332 351l-332 349h138l267 -283l268 283h138l-337 -355l326 -345h-135l-265 280l-264 -280h-136z" />
<glyph unicode="&#x426;" horiz-adv-x="816" d="M695 -103v103h-605v700h112v-607h371v607h112v-607h122v-196h-112z" />
<glyph unicode="&#x427;" horiz-adv-x="685" d="M612 700v-700h-126l20 406h-6q-15 -95 -77.5 -158.5t-165.5 -63.5q-108 2 -160.5 75t-52.5 224v217h112v-200q0 -120 35.5 -176t113.5 -56q91 0 143 82.5t52 226.5v123h112z" />
<glyph unicode="&#x428;" horiz-adv-x="1126" d="M91 0v700h112v-607h304v607h112v-607h303v607h112v-700h-943z" />
<glyph unicode="&#x429;" horiz-adv-x="1164" d="M1043 -103v103h-953v700h112v-607h304v607h112v-607h303v607h112v-607h122v-196h-112z" />
<glyph unicode="&#x42a;" horiz-adv-x="881" d="M584 427q105 0 170 -55t65 -158q0 -90 -64.5 -152t-170.5 -62h-493v598h-119v102h231v-273h381zM559 94q78 0 113 28.5t35 91.5q0 62 -35 90t-113 28h-357v-238h357z" />
<glyph unicode="&#x42b;" horiz-adv-x="1166" d="M91 700h112v-273h381q105 0 170 -55t65 -158q0 -90 -64.5 -152t-170.5 -62h-493v700zM963 0v700h112v-700h-112zM202 332v-238h357q78 0 113 28.5t35 91.5q0 62 -35 90t-113 28h-357z" />
<glyph unicode="&#x42c;" horiz-adv-x="881" d="M91 700h112v-273h381q105 0 170 -55t65 -158q0 -90 -64.5 -152t-170.5 -62h-493v700zM202 332v-238h357q78 0 113 28.5t35 91.5q0 62 -35 90t-113 28h-357z" />
<glyph unicode="&#x42d;" horiz-adv-x="935" d="M469 716q190 0 306 -100.5t116 -265.5t-116 -265.5t-306 -100.5t-306 88t-116 233h114q3 -105 87 -166.5t221 -61.5q126 0 208 60t98 165h-394v94h395q-16 106 -98 166.5t-209 60.5q-136 0 -220 -61t-88 -167h-114q0 145 116 233t306 88z" />
<glyph unicode="&#x42e;" horiz-adv-x="1342" d="M853 716q204 0 323.5 -100t119.5 -266t-119.5 -266t-323.5 -100q-188 0 -305 86t-134 232h-212v-302h-112v700h112v-304h212q17 147 134 233.5t305 86.5zM853 77q150 0 240.5 74t90.5 199q0 126 -90.5 199.5t-240.5 73.5q-149 0 -239.5 -73.5t-90.5 -199.5 q0 -125 90.5 -199t239.5 -74z" />
<glyph unicode="&#x42f;" horiz-adv-x="941" d="M850 0h-112l1 305h-286q-89 0 -135.5 -50.5t-143.5 -224.5q-11 -20 -17 -30h-125q43 79 69.5 123t60 90t63.5 68.5t69 38.5t87 19h-74q-103 0 -164 46.5t-61 129.5t59.5 134t165.5 51h543v-700zM739 401l1 205h-398q-78 0 -113 -26t-35 -83q0 -96 148 -96h397z" />
<glyph unicode="&#x430;" horiz-adv-x="672" d="M232 -16q-186 0 -186 132q0 34 19.5 61.5t55.5 45.5t74.5 30.5t90.5 20t88 11t82 7t59 4.5q-1 78 -39.5 108t-131.5 30q-103 0 -235 -57v85q146 54 275 54q243 0 243 -234v-282h-113l30 169h-8q-23 -92 -104 -138.5t-200 -46.5zM271 66q97 0 168 43t73 118 q-17 -1 -55 -3.5t-65.5 -5t-64.5 -6.5t-63 -10.5t-50.5 -16t-37 -24t-12.5 -32.5q0 -30 28 -46.5t79 -16.5z" />
<glyph unicode="&#x431;" horiz-adv-x="867" d="M456 -12q-190 0 -300 94t-110 280q0 170 119.5 261.5t319.5 91.5q14 0 52 -0.5t58 0t52 2t61 7t60 14.5v-106q-40 -14 -87.5 -16.5t-117 2t-97.5 4.5q-145 0 -226.5 -75.5t-81.5 -212.5q60 51 151.5 88.5t193.5 37.5q159 0 239 -65t80 -173q0 -107 -96.5 -170.5 t-269.5 -63.5zM447 81q135 0 198.5 33.5t63.5 111.5q0 145 -231 145q-84 0 -175 -36.5t-132 -94.5q24 -85 90 -122t186 -37z" />
<glyph unicode="&#x432;" horiz-adv-x="804" d="M90 0v500h425q119 0 172 -32t53 -103q0 -53 -44 -79t-140 -30q108 -2 157.5 -30.5t49.5 -89.5q0 -71 -54 -103.5t-172 -32.5h-447zM202 295h288q138 0 138 49q0 28 -32.5 41t-105.5 13h-289zM203 103h309q73 0 105.5 14t32.5 45q0 54 -138 54h-310z" />
<glyph unicode="&#x433;" horiz-adv-x="570" d="M90 0v500h473v-93h-361v-407h-112z" />
<glyph unicode="&#x434;" horiz-adv-x="807" d="M12 -103v205q105 0 111 81l30 356h510v-437h124v-205h-112v103h-551v-103h-112zM201 93h350v353h-293l-21 -254q-4 -55 -36 -99z" />
<glyph unicode="&#x435;" horiz-adv-x="693" d="M347 -16q-136 0 -218.5 73t-82.5 193t82.5 193t218.5 73q134 0 216.5 -62.5t84.5 -164.5v-82h-490q12 -75 67 -107t172 -32q29 0 56 2.5t44.5 6t39 10.5t31.5 11t30.5 13t27.5 12v-90q-79 -30 -134.5 -39.5t-144.5 -9.5zM156 276l387 8q-2 67 -55.5 108t-140.5 41 q-81 0 -133.5 -43t-57.5 -114z" />
<glyph unicode="&#x436;" horiz-adv-x="1156" d="M10 0l397 251l-387 249h174l328 -221v221h112v-221l328 221h174l-388 -249l398 -251h-184l-328 221v-221h-112v221l-328 -221h-184z" />
<glyph unicode="&#x437;" horiz-adv-x="818" d="M385 -15q-227 0 -345 44v93q48 -20 140.5 -32t175.5 -12q129 0 200 4.5t97 14t26 25.5q0 14 -10 24t-39.5 18.5t-69.5 14.5t-113 12t-156.5 10.5t-212.5 10.5v80q359 13 470 27t111 50q0 20 -25 31t-91 16.5t-188 5.5q-79 0 -172.5 -12.5t-142.5 -32.5v93q59 22 152 33.5 t173 11.5q86 0 152 -5.5t123 -19.5t87.5 -40t30.5 -64q0 -31 -21 -55t-59.5 -37t-71.5 -21.5t-80 -11t-61.5 -3t-36.5 -0.5v-9h37t59 -1.5t65.5 -5t70 -12t58.5 -21t44.5 -33.5t15.5 -48q0 -143 -393 -143z" />
<glyph unicode="&#x438;" horiz-adv-x="838" d="M90 0v500h112v-384l432 384h114v-500h-112v384l-431 -384h-115z" />
<glyph unicode="&#x439;" horiz-adv-x="838" d="M424 551q-93 0 -152.5 41t-60.5 108h105q1 -40 30.5 -60.5t77.5 -20.5q104 0 110 81h103q-1 -69 -56.5 -109t-156.5 -40zM90 0v500h112v-384l432 384h114v-500h-112v384l-431 -384h-115z" />
<glyph unicode="&#x43a;" horiz-adv-x="728" d="M91 0v500h112v-221l328 221h174l-387 -249l397 -251h-184l-328 221v-221h-112z" />
<glyph unicode="&#x43b;" horiz-adv-x="681" d="M41 -13q-16 0 -24 1l-3 80q100 0 106 81l30 351h520v-500h-112v407h-304l-20 -249q-7 -79 -63 -125t-130 -46z" />
<glyph unicode="&#x43c;" horiz-adv-x="952" d="M90 0v500h136l250 -344l250 344h136v-500h-112v343l-263 -343h-22l-263 351v-351h-112z" />
<glyph unicode="&#x43d;" horiz-adv-x="855" d="M90 0v500h112v-192h451v192h112v-500h-112v214h-451v-214h-112z" />
<glyph unicode="&#x43e;" horiz-adv-x="711" d="M355 -16q-139 0 -224 73t-85 193t85 193t224 73q140 0 225 -73t85 -193t-85 -193t-225 -73zM355 67q94 0 151 50.5t57 132.5t-57 132.5t-151 50.5q-93 0 -150 -50.5t-57 -132.5t57 -132.5t150 -50.5z" />
<glyph unicode="&#x43f;" horiz-adv-x="798" d="M91 0v500h615v-500h-112v408h-391v-408h-112z" />
<glyph unicode="&#x440;" horiz-adv-x="780" d="M428 516q129 0 212.5 -75t83.5 -195q0 -114 -78.5 -188t-186.5 -74q-100 0 -176 45t-94 133h-4v-362h-112v700h116l-22 -163h12q19 79 88 129t161 50zM414 433q-82 0 -140 -52t-58 -133q0 -79 58 -130t140 -51q89 0 142.5 50t53.5 131q0 83 -53.5 134t-142.5 51z" />
<glyph unicode="&#x441;" horiz-adv-x="652" d="M379 -16q-145 0 -239 73.5t-94 192.5q0 120 92 193t242 73q67 0 116 -11t110 -38v-96q-61 34 -116 48t-129 14q-90 0 -146 -50.5t-56 -132.5t60 -132.5t156 -50.5q79 0 130 13t101 45v-91q-63 -29 -109 -39.5t-118 -10.5z" />
<glyph unicode="&#x442;" horiz-adv-x="736" d="M312 0v407h-276v93h663v-93h-275v-407h-112z" />
<glyph unicode="&#x443;" horiz-adv-x="755" d="M229 -200l112 195l-316 505h120l240 -412l235 412h110l-391 -700h-110z" />
<glyph unicode="&#x444;" horiz-adv-x="711" d="M665 250q0 -106 -67 -176t-182 -86v-84h-122v84q-114 16 -181 86t-67 176t67 176t181 86v92h122v-92q115 -16 182 -86t67 -176zM416 73q68 16 107.5 63t39.5 114t-39.5 114t-107.5 63v-354zM148 250q0 -67 39.5 -114t106.5 -62v352q-67 -15 -106.5 -62t-39.5 -114z" />
<glyph unicode="&#x445;" horiz-adv-x="767" d="M26 0l279 251l-279 249h148l209 -188l210 188h148l-284 -253l275 -247h-147l-205 184l-207 -184h-147z" />
<glyph unicode="&#x446;" horiz-adv-x="773" d="M653 -103v103h-563v500h112v-407h329v407h112v-407h122v-196h-112z" />
<glyph unicode="&#x447;" horiz-adv-x="686" d="M488 0l15 302h-2q-16 -95 -77.5 -158.5t-165.5 -63.5q-212 3 -212 299v121h112v-104q0 -120 35 -175.5t113 -55.5q91 0 143.5 82.5t52.5 225.5v27h112v-500h-126z" />
<glyph unicode="&#x448;" horiz-adv-x="1106" d="M90 0v500h112v-407h295v407h112v-407h295v407h112v-500h-926z" />
<glyph unicode="&#x449;" horiz-adv-x="1146" d="M1026 -103v103h-936v500h112v-407h295v407h112v-407h295v407h112v-407h122v-196h-112z" />
<glyph unicode="&#x44a;" horiz-adv-x="840" d="M91 0v607h-121v93h233v-273h341q105 0 170 -55t65 -158q0 -90 -64.5 -152t-170.5 -62h-453zM203 95h316q78 0 113 28.5t35 90.5t-35 90.5t-113 28.5h-316v-238z" />
<glyph unicode="&#x44b;" horiz-adv-x="1124" d="M90 0v700h112v-273h341q105 0 170 -55t65 -158q0 -90 -64.5 -152t-170.5 -62h-453zM922 0v700h112v-700h-112zM202 95h316q78 0 113 28.5t35 90.5t-35 90.5t-113 28.5h-316v-238z" />
<glyph unicode="&#x44c;" horiz-adv-x="840" d="M91 0v700h112v-273h341q105 0 170 -55t65 -158q0 -90 -64.5 -152t-170.5 -62h-453zM203 95h316q78 0 113 28.5t35 90.5t-35 90.5t-113 28.5h-316v-238z" />
<glyph unicode="&#x44d;" horiz-adv-x="632" d="M252 516q150 0 242 -73t92 -193q0 -119 -94 -192.5t-239 -73.5q-72 0 -118 10.5t-109 39.5v91q50 -32 101 -45t130 -13q80 0 136 36t73 96h-294v102h294q-16 60 -68.5 96t-126.5 36t-129 -14t-116 -48v96q61 27 110 38t116 11z" />
<glyph unicode="&#x44e;" horiz-adv-x="1021" d="M615 516q140 0 225 -73t85 -193t-85 -193t-225 -73q-125 0 -206.5 59.5t-98.5 159.5h-103v-203h-112v500h112v-203h103q17 100 98.5 159.5t206.5 59.5zM615 67q94 0 151 50.5t57 132.5t-57 132.5t-151 50.5q-93 0 -150 -50.5t-57 -132.5t57 -132.5t150 -50.5z" />
<glyph unicode="&#x44f;" horiz-adv-x="811" d="M30 0q90 113 156.5 153.5t176.5 45.5h-57q-118 0 -171.5 34.5t-53.5 110.5q0 71 53.5 102.5t171.5 31.5h415v-478h-112l1 162h-150q-59 0 -89 -3.5t-66 -20.5t-67.5 -48t-81.5 -90h-126zM331 263h279l1 115h-280q-138 0 -138 -53q0 -62 138 -62z" />
<glyph unicode="&#x451;" horiz-adv-x="693" d="M206 538q-44 0 -71.5 23.5t-27.5 61.5t27.5 61.5t71.5 23.5q47 0 73 -23t26 -62t-26 -62t-73 -23zM496 538q-44 0 -71.5 23.5t-27.5 61.5t27.5 61.5t71.5 23.5q47 0 73 -23t26 -62t-26 -62t-73 -23zM347 -16q-136 0 -218.5 73t-82.5 193t82.5 193t218.5 73 q134 0 216.5 -62.5t84.5 -164.5v-82h-490q12 -75 67 -107t172 -32q29 0 56 2.5t44.5 6t39 10.5t31.5 11t30.5 13t27.5 12v-90q-79 -30 -134.5 -39.5t-144.5 -9.5zM156 276l387 8q-2 67 -55.5 108t-140.5 41q-81 0 -133.5 -43t-57.5 -114z" />
<glyph unicode="&#x1e80;" horiz-adv-x="1259" d="M636 744l-287 164v102l287 -186v-80zM318 0l-259 700h116l207 -567l200 567h94l200 -567l207 567h117l-259 -700h-118l-193 564l-194 -564h-118z" />
<glyph unicode="&#x1e81;" horiz-adv-x="1054" d="M527 544l-287 164v102l287 -186v-80zM239 0l-214 500h108l184 -433l173 433h64l183 -433l184 433h108l-214 -500h-166l-126 306l-118 -306h-166z" />
<glyph unicode="&#x1e82;" horiz-adv-x="1259" d="M606 744v80l287 186v-102zM318 0l-259 700h116l207 -567l200 567h94l200 -567l207 567h117l-259 -700h-118l-193 564l-194 -564h-118z" />
<glyph unicode="&#x1e83;" horiz-adv-x="1054" d="M497 544v80l287 186v-102zM239 0l-214 500h108l184 -433l173 433h64l183 -433l184 433h108l-214 -500h-166l-126 306l-118 -306h-166z" />
<glyph unicode="&#x1e84;" horiz-adv-x="1259" d="M489 738q-44 0 -71.5 23.5t-27.5 61.5t27.5 61.5t71.5 23.5q47 0 73 -23t26 -62t-26 -62t-73 -23zM779 738q-44 0 -71.5 23.5t-27.5 61.5t27.5 61.5t71.5 23.5q47 0 73 -23t26 -62t-26 -62t-73 -23zM318 0l-259 700h116l207 -567l200 567h94l200 -567l207 567h117 l-259 -700h-118l-193 564l-194 -564h-118z" />
<glyph unicode="&#x1e85;" horiz-adv-x="1054" d="M372 538q-44 0 -71.5 23.5t-27.5 61.5t27.5 61.5t71.5 23.5q47 0 73 -23t26 -62t-26 -62t-73 -23zM662 538q-44 0 -71.5 23.5t-27.5 61.5t27.5 61.5t71.5 23.5q47 0 73 -23t26 -62t-26 -62t-73 -23zM239 0l-214 500h108l184 -433l173 433h64l183 -433l184 433h108 l-214 -500h-166l-126 306l-118 -306h-166z" />
<glyph unicode="&#x1ef2;" horiz-adv-x="868" d="M440 744l-287 164v102l287 -186v-80zM378 0v226l-353 474h137l272 -368l272 368h137l-353 -473v-227h-112z" />
<glyph unicode="&#x1ef3;" horiz-adv-x="755" d="M397 544l-287 164v102l287 -186v-80zM229 -200l112 195l-316 505h120l240 -412l235 412h110l-391 -700h-110z" />
<glyph unicode="&#x2000;" horiz-adv-x="510" />
<glyph unicode="&#x2001;" horiz-adv-x="1021" />
<glyph unicode="&#x2002;" horiz-adv-x="510" />
<glyph unicode="&#x2003;" horiz-adv-x="1021" />
<glyph unicode="&#x2004;" horiz-adv-x="340" />
<glyph unicode="&#x2005;" horiz-adv-x="255" />
<glyph unicode="&#x2006;" horiz-adv-x="170" />
<glyph unicode="&#x2007;" horiz-adv-x="170" />
<glyph unicode="&#x2008;" horiz-adv-x="127" />
<glyph unicode="&#x2009;" horiz-adv-x="204" />
<glyph unicode="&#x200a;" horiz-adv-x="56" />
<glyph unicode="&#x2010;" horiz-adv-x="460" d="M30 289v83h400v-83h-400z" />
<glyph unicode="&#x2011;" horiz-adv-x="460" d="M30 289v83h400v-83h-400z" />
<glyph unicode="&#x2012;" horiz-adv-x="460" d="M30 289v83h400v-83h-400z" />
<glyph unicode="&#x2013;" horiz-adv-x="560" d="M30 289v83h500v-83h-500z" />
<glyph unicode="&#x2014;" horiz-adv-x="1060" d="M30 289v83h1000v-83h-1000z" />
<glyph unicode="&#x2018;" horiz-adv-x="293" d="M263 700l-63 -270h-103l113 270h53z" />
<glyph unicode="&#x2019;" horiz-adv-x="293" d="M30 430l63 270h103l-113 -270h-53z" />
<glyph unicode="&#x201a;" horiz-adv-x="293" d="M30 -169l63 270h103l-113 -270h-53z" />
<glyph unicode="&#x201c;" horiz-adv-x="515" d="M263 700l-63 -270h-103l113 270h53zM485 700l-63 -270h-103l113 270h53z" />
<glyph unicode="&#x201d;" horiz-adv-x="515" d="M30 430l63 270h103l-113 -270h-53zM252 430l63 270h103l-113 -270h-53z" />
<glyph unicode="&#x201e;" horiz-adv-x="455" d="M30 -169l63 270h103l-113 -270h-53zM252 -169l63 270h103l-113 -270h-53z" />
<glyph unicode="&#x2020;" horiz-adv-x="580" d="M234 -170v586h-204v83h204v221h112v-221h204v-83h-204v-586h-112z" />
<glyph unicode="&#x2021;" horiz-adv-x="600" d="M234 -170v170h-204v83h204v333h-204v83h204v221h112v-221h204v-83h-204v-333h204v-83h-204v-170h-112z" />
<glyph unicode="&#x2022;" horiz-adv-x="529" d="M264 54q-69 0 -122 49.5t-53 115.5q0 67 53 115.5t122 48.5q70 0 124 -48.5t54 -115.5t-52.5 -116t-125.5 -49z" />
<glyph unicode="&#x2026;" horiz-adv-x="905" d="M120 -18q-26 0 -46.5 19t-20.5 44q0 26 20 44.5t47 18.5t47.5 -18.5t20.5 -44.5t-20 -44.5t-48 -18.5zM420 -18q-26 0 -46.5 19t-20.5 44q0 26 20 44.5t47 18.5t47.5 -18.5t20.5 -44.5t-20 -44.5t-48 -18.5zM720 -18q-26 0 -46.5 19t-20.5 44q0 26 20 44.5t47 18.5 t47.5 -18.5t20.5 -44.5t-20 -44.5t-48 -18.5z" />
<glyph unicode="&#x202f;" horiz-adv-x="204" />
<glyph unicode="&#x2030;" horiz-adv-x="1519" d="M259 460q-86 0 -147.5 35t-61.5 90t61.5 90t147.5 35q93 0 151 -34.5t58 -90.5t-58 -90.5t-151 -34.5zM110 0l711 700h118l-710 -700h-119zM259 500q54 0 87 23t33 60q0 39 -33 63.5t-87 24.5q-53 0 -86 -24t-33 -62t33 -61.5t86 -23.5zM781 -11q-86 0 -147.5 35 t-61.5 90t61.5 90t147.5 35q93 0 151 -34.5t58 -90.5t-58 -90.5t-151 -34.5zM1260 -11q-86 0 -147.5 35t-61.5 90t61.5 90t147.5 35q93 0 151 -34.5t58 -90.5t-58 -90.5t-151 -34.5zM781 28q54 0 87 23t33 61q0 39 -33 63t-87 24q-53 0 -86 -23.5t-33 -61.5t33 -62t86 -24z M1260 28q54 0 87 23t33 61q0 39 -33 63t-87 24q-53 0 -86 -23.5t-33 -61.5t33 -62t86 -24z" />
<glyph unicode="&#x2039;" horiz-adv-x="416" d="M386 500l-214 -250l214 -250h-150l-206 250l206 250h150z" />
<glyph unicode="&#x203a;" horiz-adv-x="416" d="M180 500l206 -250l-206 -250h-150l214 250l-214 250h150z" />
<glyph unicode="&#x2044;" horiz-adv-x="1038" d="M40 -100l832 900h126l-832 -900h-126z" />
<glyph unicode="&#x205f;" horiz-adv-x="255" />
<glyph unicode="&#x20ac;" horiz-adv-x="1017" d="M544 77q137 0 221 61.5t87 166.5h114q0 -145 -116 -233t-306 -88q-151 0 -257.5 65.5t-145.5 179.5h-133v102h114v19q0 15 1 22h-115v102h134q39 113 145.5 177.5t256.5 64.5q190 0 306 -88t116 -233h-114q-4 106 -88 167t-220 61q-101 0 -174.5 -39t-108.5 -110h377 v-102h-403q-1 -7 -1 -22q0 -13 1 -19h403v-102h-378q34 -72 108 -112t176 -40z" />
<glyph unicode="&#x2122;" horiz-adv-x="1308" d="M314 222v415h-242v63h562v-63h-243v-415h-77zM677 222v478h95l206 -361l207 361h95v-478h-77v372l-218 -372h-13l-218 369v-369h-77z" />
<glyph unicode="&#x215b;" horiz-adv-x="1704" d="M420 -22l688 744h104l-688 -744h-104zM295 161v397l-224 -147v76l265 152h36v-478h-77zM1391 47q-124 0 -197 33.5t-73 105.5q0 93 151 110q-55 10 -96 38.5t-41 82.5q0 63 65.5 97t180.5 34q108 0 177 -33.5t69 -97.5q0 -54 -41 -82.5t-96 -38.5q151 -17 151 -110 q0 -64 -69 -101.5t-181 -37.5zM1381 329q87 0 128 17.5t41 57.5q0 35 -46.5 57.5t-122.5 22.5q-77 0 -123 -22.5t-46 -57.5q0 -40 41 -57.5t128 -17.5zM1382 112q82 0 132 20.5t50 57.5q0 75 -183 75t-183 -75q0 -37 50.5 -57.5t133.5 -20.5z" />
<glyph unicode="&#x215c;" horiz-adv-x="1711" d="M416 -22l688 744h104l-688 -744h-104zM286 150q-158 0 -238 30v64q69 -30 216 -30q218 0 218 66q0 24 -17 39.5t-65.5 27t-124 18t-201.5 11.5v49q226 8 310 28t84 60q0 38 -48 56t-157 18q-55 0 -118.5 -8.5t-96.5 -22.5v64q84 31 222 31q61 0 104 -4.5t83 -18 t60.5 -40.5t20.5 -68q0 -28 -14.5 -49.5t-40.5 -33t-49 -19t-54.5 -10t-41.5 -3t-25 -0.5v-6l25 -1q25 0 40.5 -1.5t44.5 -5.5t48.5 -12t39.5 -20t30.5 -32t10.5 -46q0 -74 -68.5 -102.5t-197.5 -28.5zM1398 44q-124 0 -197 33.5t-73 105.5q0 93 151 110q-55 10 -96 38.5 t-41 82.5q0 63 65.5 97t180.5 34q108 0 177 -33.5t69 -97.5q0 -54 -41 -82.5t-96 -38.5q151 -17 151 -110q0 -64 -69 -101.5t-181 -37.5zM1388 326q87 0 128 17.5t41 57.5q0 35 -46.5 57.5t-122.5 22.5q-77 0 -123 -22.5t-46 -57.5q0 -40 41 -57.5t128 -17.5zM1389 109 q82 0 132 20.5t50 57.5q0 75 -183 75t-183 -75q0 -37 50.5 -57.5t133.5 -20.5z" />
<glyph unicode="&#x215d;" horiz-adv-x="1751" d="M460 -22l688 744h104l-688 -744h-104zM265 147q-52 0 -119.5 8t-97.5 20v70q27 -13 96 -23.5t118 -10.5q111 0 160 25.5t49 83.5q0 45 -39 63.5t-119 18.5q-120 0 -238 -53v287h447v-63h-387v-136q89 31 198 31q215 0 215 -156q0 -78 -77 -121.5t-206 -43.5zM1438 44 q-124 0 -197 33.5t-73 105.5q0 93 151 110q-55 10 -96 38.5t-41 82.5q0 63 65.5 97t180.5 34q108 0 177 -33.5t69 -97.5q0 -54 -41 -82.5t-96 -38.5q151 -17 151 -110q0 -64 -69 -101.5t-181 -37.5zM1428 326q87 0 128 17.5t41 57.5q0 35 -46.5 57.5t-122.5 22.5 q-77 0 -123 -22.5t-46 -57.5q0 -40 41 -57.5t128 -17.5zM1429 109q82 0 132 20.5t50 57.5q0 75 -183 75t-183 -75q0 -37 50.5 -57.5t133.5 -20.5z" />
<glyph unicode="&#x215e;" horiz-adv-x="1618" d="M314 -22l688 744h104l-688 -744h-104zM142 158l325 415h-436v63h530v-30l-326 -448h-93zM1305 44q-124 0 -197 33.5t-73 105.5q0 93 151 110q-55 10 -96 38.5t-41 82.5q0 63 65.5 97t180.5 34q108 0 177 -33.5t69 -97.5q0 -54 -41 -82.5t-96 -38.5q151 -17 151 -110 q0 -64 -69 -101.5t-181 -37.5zM1295 326q87 0 128 17.5t41 57.5q0 35 -46.5 57.5t-122.5 22.5q-77 0 -123 -22.5t-46 -57.5q0 -40 41 -57.5t128 -17.5zM1296 109q82 0 132 20.5t50 57.5q0 75 -183 75t-183 -75q0 -37 50.5 -57.5t133.5 -20.5z" />
<glyph unicode="&#x2190;" horiz-adv-x="830" d="M800 278h-600l168 -198l-132 1l-206 250l206 250h132l-169 -198h601v-105z" />
<glyph unicode="&#x2191;" horiz-adv-x="561" d="M228 -58v600l-198 -168l1 132l250 206l250 -206v-132l-198 169v-601h-105z" />
<glyph unicode="&#x2192;" horiz-adv-x="830" d="M30 383h600l-168 198l132 -1l206 -250l-206 -250h-132l169 198h-601v105z" />
<glyph unicode="&#x2193;" horiz-adv-x="561" d="M333 699v-600l198 168l-1 -132l-250 -206l-250 206v132l198 -169v601h105z" />
<glyph unicode="&#x2202;" horiz-adv-x="836" d="M396 -12q-173 0 -269.5 63.5t-96.5 170.5q0 108 80 173t239 65q103 0 186 -44t135 -104q13 173 -73 273.5t-258 115.5l4 54q195 0 318 -109.5t123 -283.5q0 -188 -100.5 -281t-287.5 -93zM405 70q110 0 170.5 38t82.5 122q-35 73 -116 124t-168 51q-104 0 -167.5 -46 t-63.5 -122q0 -75 72 -121t190 -46z" />
<glyph unicode="&#x2205;" horiz-adv-x="702" d="M736 493l-114 -96q43 -63 43 -147q0 -120 -85 -193t-225 -73q-102 0 -176 40l-132 -111l-76 80l123 104q-48 63 -48 153q0 120 85 193t224 73q107 0 184 -44l116 97zM148 250q0 -50 22 -89l295 248q-47 24 -110 24q-93 0 -150 -50.5t-57 -132.5zM563 250q0 46 -18 82 l-291 -245q45 -20 101 -20q94 0 151 50.5t57 132.5z" />
<glyph unicode="&#x220f;" horiz-adv-x="790" d="M109 -170v787h-79v83h730v-83h-79v-787h-112v787h-348v-787h-112z" />
<glyph unicode="&#x2211;" horiz-adv-x="790" d="M30 0v83l299 257l-299 277v83h730v-83h-548l299 -277l-299 -257h548v-83h-730z" />
<glyph unicode="&#x2212;" horiz-adv-x="580" d="M30 289v83h520v-83h-520z" />
<glyph unicode="&#x221a;" horiz-adv-x="1109" d="M269 0l-264 501h129l257 -486l360 685h328v-83h-243l-325 -617h-242z" />
<glyph unicode="&#x221e;" horiz-adv-x="988" d="M278 77q-109 0 -178.5 68t-69.5 160q0 94 71.5 165t178.5 71q95 0 150 -44.5t64 -122.5q9 79 65 123t149 44q107 0 178.5 -71t71.5 -165q0 -92 -69.5 -160t-178.5 -68q-97 0 -152 41t-64 116q-9 -75 -64 -116t-152 -41zM291 178q61 7 93.5 41.5t32.5 86.5 q0 55 -36.5 89.5t-101.5 34.5q-59 0 -96 -35.5t-37 -88.5q0 -57 41 -94.5t104 -33.5zM697 178q63 -4 104 33.5t41 94.5q0 53 -37 88.5t-96 35.5q-65 0 -101.5 -34.5t-36.5 -89.5q0 -52 32.5 -86.5t93.5 -41.5z" />
<glyph unicode="&#x222b;" horiz-adv-x="667" d="M10 -140l13 58q61 0 103.5 24t51.5 60l138 587q8 33 24.5 56t52.5 44t101.5 31.5t162.5 10.5l-13 -58q-61 0 -103.5 -24t-50.5 -60l-138 -587q-8 -33 -24.5 -56t-52.5 -44t-102 -31.5t-163 -10.5z" />
<glyph unicode="&#x2248;" horiz-adv-x="441" d="M288 310q-31 0 -56 18t-44 36t-35 18q-28 0 -44.5 -18t-17.5 -53h-61q1 58 35 94t88 36q34 0 73 -36t62 -36q62 0 63 71h60q-1 -59 -35 -94.5t-88 -35.5zM288 140q-31 0 -56 18t-44 36t-35 18q-28 0 -44.5 -18t-17.5 -53h-61q1 58 35 94t88 36q34 0 73 -36t62 -36 q62 0 63 71h60q-1 -59 -35 -94.5t-88 -35.5z" />
<glyph unicode="&#x2260;" horiz-adv-x="580" d="M79 20l77 139h-126v83h173l94 170h-267v83h313l70 125h81l-70 -125h126v-83h-172l-94 -170h266v-83h-313l-77 -139h-81z" />
<glyph unicode="&#x2264;" horiz-adv-x="600" d="M324 204l-249 141l249 141h201l-259 -141l259 -141h-201zM98 0v43h475v-43h-475z" />
<glyph unicode="&#x2265;" horiz-adv-x="600" d="M123 204l259 141l-259 141h201l249 -141l-249 -141h-201zM75 0v43h475v-43h-475z" />
<glyph unicode="&#x25ca;" horiz-adv-x="726" d="M236 0l-206 250l206 250h254l206 -250l-206 -250h-254zM363 27l191 223l-191 223l-191 -223z" />
<glyph unicode="&#x25fc;" horiz-adv-x="500" d="M0 500h500v-500h-500v500z" />
<glyph horiz-adv-x="1083" d="M36 0l402 700h207l401 -700h-139l-87 163h-558l-87 -163h-139zM307 245h469l-235 438z" />
<glyph horiz-adv-x="926" d="M91 0v700h513q105 0 165 -49.5t60 -124.5q0 -165 -225 -165h-41v-11h63q106 0 166 -43t60 -132q0 -77 -62.5 -126t-163.5 -49h-535zM204 390h354q83 0 121 24t38 73q0 62 -38 91t-121 29h-354v-217zM205 94h375q83 0 121 29.5t38 92.5q0 54 -38 79.5t-121 25.5h-376z" />
<glyph horiz-adv-x="858" d="M518 -16q-224 0 -348 99t-124 267t124 267t348 99q174 -1 295 -54v-103q-126 64 -295 64q-162 0 -261 -73.5t-99 -199.5q0 -125 99 -199t261 -74q169 0 295 64v-103q-121 -53 -295 -54z" />
<glyph horiz-adv-x="871" d="M516 -16q-224 0 -348 99t-124 267t124 267t348 99q169 -1 290 -54v-103q-126 64 -290 64q-162 0 -261 -74t-99 -199t99.5 -199t260.5 -74q106 0 201 29v192h-389v84h498v-324q-175 -73 -310 -74z" />
<glyph horiz-adv-x="688" d="M278 -16q-88 1 -146 12.5t-127 41.5v113q149 -74 273 -74q111 0 159 60t48 202v361h112v-361q0 -187 -75 -271t-244 -84z" />
<glyph horiz-adv-x="938" d="M91 0v700h112v-464l432 464h188l-262 -239l314 -461h-146l-248 389q-189 -173 -278 -229v-160h-112z" />
<glyph horiz-adv-x="909" d="M91 0v700h509q108 0 166.5 -45t58.5 -126q0 -82 -60 -123.5t-165 -41.5h-71v-11q96 0 182.5 -85.5t175.5 -267.5h-131q-98 176 -173.5 250t-157.5 74h-223l1 -324h-112zM202 424h352q88 0 123.5 19.5t35.5 67.5q0 53 -35 74t-124 21h-353z" />
<glyph horiz-adv-x="890" d="M439 -15q-108 0 -209 24t-158 50v106q57 -30 162 -58.5t189 -28.5q163 0 236.5 23.5t73.5 76.5q0 41 -38 68t-98.5 40t-133.5 22.5t-146.5 21t-134 30t-98.5 55t-38 90.5q0 72 56.5 120.5t141.5 69t190 20.5q229 0 351 -54v-103q-56 28 -156 46t-180 18 q-154 0 -222.5 -23.5t-68.5 -78.5q0 -35 38 -58.5t98.5 -35.5t134 -21t146.5 -22t133.5 -32t98.5 -56t38 -90q0 -61 -36.5 -106t-98 -69t-128.5 -34.5t-143 -10.5z" />
<glyph horiz-adv-x="293" d="M147 535q-44 0 -71.5 23.5t-27.5 61.5t27.5 61.5t71.5 23.5q47 0 73 -23t26 -62t-26 -62t-73 -23zM92 0v500h112v-500h-112z" />
<glyph horiz-adv-x="693" d="M347 -16q-136 0 -218.5 73t-82.5 193t82.5 193t218.5 73q135 0 217.5 -65t82.5 -172h-114q-4 72 -55 113t-131 41q-86 0 -137.5 -49t-51.5 -134t51.5 -134t137.5 -49q82 0 133 43t55 119h113q0 -110 -82.5 -177.5t-218.5 -67.5z" />
<glyph horiz-adv-x="696" d="M533 175h118q-18 -88 -95 -139.5t-209 -51.5q-136 0 -218.5 73t-82.5 193t82.5 193t218.5 73q135 0 217 -64t84 -174v-71h-485q14 -63 66 -101t128 -38q66 0 114.5 29.5t61.5 77.5zM347 432q-80 0 -131.5 -45.5t-56.5 -120.5l374 7q-4 72 -54.5 115.5t-131.5 43.5z" />
<glyph horiz-adv-x="761" d="M354 -200q-149 0 -225 51t-76 139h112q0 -52 45 -78t152 -26q138 0 184.5 49t46.5 196q-25 -68 -89.5 -109t-150.5 -41q-129 0 -212.5 76t-83.5 197q0 114 78.5 188t185.5 74q101 0 177 -45t94 -133h12l-15 162h101v-395q0 -163 -79 -234t-257 -71zM366 67q82 0 140.5 52 t58.5 133q0 79 -58.5 130t-140.5 51q-89 0 -142.5 -50t-53.5 -131q0 -83 53.5 -134t142.5 -51z" />
<glyph horiz-adv-x="956" d="M478 -16q-202 0 -317 99.5t-115 266.5q0 166 116 266t316 100q204 0 318.5 -98.5t114.5 -267.5q0 -167 -115 -266.5t-318 -99.5zM479 11q198 0 301.5 93.5t103.5 247.5q0 152 -104.5 244.5t-300.5 92.5q-192 0 -299 -94.5t-107 -246.5q0 -150 108 -243.5t298 -93.5z M481 123q-126 0 -200 62t-74 165q0 104 73.5 166t200.5 62t201 -62.5t74 -165.5t-74 -165t-201 -62zM481 181q93 0 149.5 46t56.5 123q0 78 -56.5 124t-149.5 46q-92 0 -148.5 -46t-56.5 -124q0 -77 56.5 -123t148.5 -46z" />
<glyph horiz-adv-x="956" d="M478 -16q-202 0 -317 99.5t-115 266.5q0 166 116 266t316 100q204 0 318.5 -98.5t114.5 -267.5q0 -167 -115 -266.5t-318 -99.5zM478 11q198 0 301.5 93.5t103.5 247.5q0 152 -104.5 244.5t-300.5 92.5q-192 0 -299 -94.5t-107 -246.5q0 -150 108 -243.5t298 -93.5z M469 133v361l-204 -134v69l242 139h32v-435h-70z" />
<glyph horiz-adv-x="956" d="M478 -16q-202 0 -317 99.5t-115 266.5q0 165 116.5 265.5t315.5 100.5q204 0 318.5 -98.5t114.5 -267.5q0 -167 -115 -266.5t-318 -99.5zM479 11q198 0 301.5 93.5t103.5 247.5q0 152 -104.5 244.5t-300.5 92.5q-192 0 -299 -94.5t-107 -246.5q0 -150 108 -243.5 t298 -93.5zM252 136v37q23 12 71 36.5t78 40t73.5 39t70.5 42t54 39.5t40 39.5t13 35.5q0 42 -39 59.5t-134 17.5q-47 0 -116 -8t-88 -16v60q26 9 94.5 15.5t126.5 6.5q117 0 171.5 -26.5t54.5 -96.5q0 -48 -56 -101.5t-126.5 -92t-149.5 -69.5h314v-58h-452z" />
<glyph horiz-adv-x="956" d="M478 -16q-202 0 -317 99.5t-115 266.5q0 165 116.5 265.5t315.5 100.5q204 0 318.5 -98.5t114.5 -267.5q0 -167 -115 -266.5t-318 -99.5zM478 11q198 0 301.5 93.5t103.5 247.5q0 152 -104.5 244.5t-300.5 92.5q-192 0 -299 -94.5t-107 -246.5q0 -150 108 -243.5 t298 -93.5zM492 123q-140 0 -217 27v58q64 -27 197 -27q198 0 198 60q0 29 -32 45.5t-109.5 26t-229.5 16.5v44q205 7 281.5 25.5t76.5 54.5q0 34 -43.5 50.5t-142.5 16.5q-128 0 -196 -27v57q78 28 202 28q56 0 95 -4t75.5 -16t55 -36.5t18.5 -62.5q0 -25 -13 -44.5 t-36.5 -30t-44.5 -17.5t-50 -9t-38 -2.5t-23 -0.5v-6h17t26 -0.5t30 -2t33.5 -5t32 -8.5t31.5 -13t24.5 -18.5t17.5 -26t6 -33.5q0 -67 -62.5 -93t-179.5 -26z" />
<glyph horiz-adv-x="956" d="M478 -16q-202 0 -317 99.5t-115 266.5q0 165 116.5 265.5t315.5 100.5q204 0 318.5 -98.5t114.5 -267.5q0 -167 -115 -266.5t-318 -99.5zM478 11q198 0 301.5 93.5t103.5 247.5q0 152 -104.5 244.5t-300.5 92.5q-192 0 -299 -94.5t-107 -246.5q0 -150 108 -243.5 t298 -93.5zM572 133v82h-379v41l330 312h118v-295h69v-58h-69v-82h-69zM282 273h290v273z" />
<glyph horiz-adv-x="956" d="M478 -16q-202 0 -317 99.5t-115 266.5q0 165 116.5 265.5t315.5 100.5q204 0 318.5 -98.5t114.5 -267.5q0 -167 -115 -266.5t-318 -99.5zM479 11q198 0 301.5 93.5t103.5 247.5q0 152 -104.5 244.5t-300.5 92.5q-192 0 -299 -94.5t-107 -246.5q0 -150 108 -243.5 t298 -93.5zM468 119q-47 0 -108 7t-89 19v63q25 -12 87 -21.5t108 -9.5q101 0 145.5 23.5t44.5 75.5q0 41 -35.5 58t-108.5 17q-111 0 -216 -49v262h406v-58h-352v-123q84 28 180 28q196 0 196 -142q0 -71 -70.5 -110.5t-187.5 -39.5z" />
<glyph horiz-adv-x="956" d="M478 -16q-202 0 -317 99.5t-115 266.5q0 165 116.5 265.5t315.5 100.5q204 0 318.5 -98.5t114.5 -267.5q0 -167 -115 -266.5t-318 -99.5zM479 11q198 0 301.5 93.5t103.5 247.5q0 152 -104.5 244.5t-300.5 92.5q-192 0 -299 -94.5t-107 -246.5q0 -150 108 -243.5 t298 -93.5zM481 126q-118 0 -186 58t-68 174q0 105 74 162t198 57q102 0 176 -36v-66q-80 44 -188 44q-83 0 -137 -45t-54 -116v-18q37 32 94 55.5t120 23.5q99 0 148.5 -40.5t49.5 -107.5t-60 -106t-167 -39zM476 183q83 0 122.5 21t39.5 69q0 90 -143 90 q-52 0 -108.5 -22.5t-82.5 -58.5q15 -53 56 -76t116 -23z" />
<glyph horiz-adv-x="956" d="M478 -16q-202 0 -317 99.5t-115 266.5q0 165 116.5 265.5t315.5 100.5q204 0 318.5 -98.5t114.5 -267.5q0 -167 -115 -266.5t-318 -99.5zM478 11q198 0 301.5 93.5t103.5 247.5q0 152 -104.5 244.5t-300.5 92.5q-192 0 -299 -94.5t-107 -246.5q0 -150 108 -243.5 t298 -93.5zM363 133l296 377h-397v58h482v-28l-296 -407h-85z" />
<glyph horiz-adv-x="956" d="M478 -16q-202 0 -317 99.5t-115 266.5q0 165 116.5 265.5t315.5 100.5q204 0 318.5 -98.5t114.5 -267.5q0 -167 -115 -266.5t-318 -99.5zM479 11q198 0 301.5 93.5t103.5 247.5q0 152 -104.5 244.5t-300.5 92.5q-192 0 -299 -94.5t-107 -246.5q0 -150 108 -243.5 t298 -93.5zM489 120q-246 0 -246 126q0 83 138 100q-50 9 -87.5 34.5t-37.5 74.5q0 58 59.5 89t164.5 31q98 0 161 -31t63 -89q0 -49 -37.5 -74.5t-87.5 -34.5q137 -17 137 -100q0 -59 -62.5 -92.5t-164.5 -33.5zM480 375q79 0 116 16t37 53q0 32 -41.5 52t-111.5 20 t-112 -20t-42 -52q0 -37 37.5 -53t116.5 -16zM481 179q74 0 119.5 18.5t45.5 51.5q0 68 -166 68t-166 -68q0 -33 46 -51.5t121 -18.5z" />
<glyph horiz-adv-x="956" d="M478 -16q-202 0 -317 99.5t-115 266.5q0 165 116.5 265.5t315.5 100.5q204 0 318.5 -98.5t114.5 -267.5q0 -167 -115 -266.5t-318 -99.5zM479 11q198 0 301.5 93.5t103.5 247.5q0 152 -104.5 244.5t-300.5 92.5q-192 0 -299 -94.5t-107 -246.5q0 -150 108 -243.5 t298 -93.5zM484 576q118 0 186.5 -58.5t68.5 -173.5q0 -106 -74 -162.5t-199 -56.5q-102 0 -176 36v66q77 -44 188 -44q83 0 137 45t54 116v17q-37 -32 -93.5 -55t-120.5 -23q-98 0 -148 40.5t-50 107.5t60 106t167 39zM490 519q-84 0 -123.5 -21t-39.5 -69q0 -90 144 -90 q52 0 108.5 22.5t81.5 58.5q-15 53 -56 76t-115 23z" />
<glyph horiz-adv-x="863" d="M333 -110v100q-163 17 -271 69v106q57 -30 162 -58.5t189 -28.5q163 0 236.5 23.5t73.5 76.5q0 41 -38 68t-98.5 40t-133.5 22.5t-146.5 21t-134 30t-98.5 55t-38 90.5q0 90 82 141t215 65v124h157v-121q186 -9 285 -53v-103q-56 28 -156 46t-180 18q-154 0 -222.5 -23.5 t-68.5 -78.5q0 -35 38 -58.5t98.5 -35.5t134 -21t146.5 -22t133.5 -32t98.5 -56t38 -90q0 -55 -29.5 -97t-80.5 -66.5t-109 -37.5t-126 -17v-97h-157z" />
<glyph horiz-adv-x="927" d="M602 -16q-179 0 -295 64.5t-157 179.5h-120v103h100v19q0 14 1 21h-101v103h121q41 114 157 178t294 64q174 -1 295 -54v-103q-136 64 -295 64q-116 0 -202 -39t-127 -110h467v-103h-497l-1 -21q0 -13 1 -19h497v-103h-468q41 -72 127 -111.5t203 -39.5q169 0 295 64 v-103q-121 -53 -295 -54z" />
<glyph d="M-266 551q-93 0 -152.5 41t-60.5 108h105q1 -40 30.5 -60.5t77.5 -20.5q104 0 110 81h103q-1 -69 -56.5 -109t-156.5 -40z" />
</font>
</defs>
</svg>
