<svg xmlns="http://www.w3.org/2000/svg" width="50" height="50" viewBox="0 0 26 26">
    <path
        d="M7 2.015625L20.160156 14.34375l-5.375.484375-.976562.089844.40625.894531 3.261719 7.144531-2.40625 1.058594-3.113282-7.222656-.390625-.910156-.722656.679687-3.816406 3.582031L7 2.015625m0-2c-.269531 0-.539062.0507813-.796875.164063C5.472656.496094 5 1.21875 5 2.015625l.027344 18.128906c0 .796875.476562 1.515625 1.203125 1.832032.257812.109375.527344.164062.792969.164062.5 0 .992187-.1875 1.371093-.539062l2.460938-2.3125 2.378906 5.515625c.210938.492187.609375.875 1.105469 1.070312.234375.09375.480469.140625.730469.140625.273437 0 .546875-.058594.804687-.171875l2.40625-1.058594c.488281-.214843.875-.617187 1.0625-1.117187.191406-.5.175781-1.054688-.046875-1.542969l-2.5-5.46875 3.542969-.324219c.785156-.070312 1.457031-.59375 1.710937-1.339843.257813-.746094.050782-1.570313-.523437-2.109375L8.367188.554688C7.988281.199219 7.496094.015625 7 .015625z"/>
</svg>
