<svg xmlns="http://www.w3.org/2000/svg" width="50" height="50" viewBox="0 0 32 32">
    <path
        d="M13 2c-1.644531 0-3 1.355469-3 3v11.8125l-.65625-.6875-.25-.21875c-1.152344-1.152344-3.035156-1.152344-4.1875 0-1.152344 1.152344-1.152344 3.035156 0 4.1875v.03125l8.1875 8.09375.0625.03125.03125.0625c1.347656 1.011719 3.066406 1.6875 5 1.6875h1.71875c4.535156 0 8.1875-3.652344 8.1875-8.1875V14c0-1.644531-1.355469-3-3-3-.425781 0-.820312.117188-1.1875.28125C23.578125 9.980469 22.394531 9 21 9c-.765625 0-1.46875.300781-2 .78125C18.46875 9.300781 17.765625 9 17 9c-.351562 0-.683594.074219-1 .1875V5c0-1.644531-1.355469-3-3-3zm0 2c.554688 0 1 .445313 1 1v11h2v-4c0-.554687.445313-1 1-1 .554688 0 1 .445313 1 1v4h2v-4c0-.554687.445313-1 1-1 .554688 0 1 .445313 1 1v4h2.09375v-2c0-.554687.445313-1 1-1 .554688 0 1 .445313 1 1v7.8125c0 3.464844-2.722656 6.1875-6.1875 6.1875H18.1875c-1.464844 0-2.730469-.523437-3.78125-1.3125l-8.09375-8c-.445312-.445312-.445312-.929687 0-1.375.445313-.445312.929688-.445312 1.375 0L12 21.625V5c0-.554687.445313-1 1-1z"/>
</svg>
