<svg xmlns="http://www.w3.org/2000/svg" width="14" height="16">
    <g fill="none" fill-rule="evenodd">
        <path fill="#FFF" fill-rule="nonzero"
              d="M11.36 5.81c0 .14.07-.39.29-.74.1767311-.52467051.7453295-.80673112 1.27-.63.5246705.17673112.8067311.74532949.63 1.27v2.26a11.64000032 11.64000032 0 0 1-.24 1.74c-.1604334.50857-.3891904.9929966-.68 1.44-.4855522.5399641-.8867456 1.1501826-1.19 1.81a4.10999994 4.10999994 0 0 0-.1 1c-.0008851.3106255.0394673.6199942.12.92a5.87000501 5.87000501 0 0 1-1.23 0c-.39-.06-.87-.84-1-1.08-.06432211-.1288674-.19597177-.2102944-.34-.2102944-.14402823 0-.27567789.081427-.34.2102944-.22.38-.71 1.07-1 1.11-.67.08-2.06 0-3.14 0 0 0 .18-1-.23-1.36-.41-.36-.83-.78-1.14-1.06l-.83-.92c-.58569316-.543005-1.01407292-1.2339401-1.24-2-.21-.94-.19-1.4 0-1.77.19378932-.31379538.49639241-.54519774.85-.65.29381573-.05245818.59602367-.0318531.88.06.19653852.08170762.3662773.21680584.49.39.23.31.3.46.21.12s-.2-.85-.41-1.55c-.21-.7-.34-.86-.47-1.23-.13-.37-.3-.72-.5-1.18a12.2899998 12.2899998 0 0 1-.46-1.44c-.08883658-.40925667.00619227-.83688651.26-1.17.35885686-.35017874.87668179-.4834425 1.36-.35.37898328.16506312.69954183.44032535.92.79a7.47999969 7.47999969 0 0 1 .72 1.5c.33070665.85814153.56546773 1.75023363.7 2.66-.01924813-.5370597.02777302-1.07444437.14-1.6.11114926-.32418533.36581467-.57885074.69-.69.29780915-.09137481.61284549-.11192065.92-.06.31003669.06481591.58466387.24314524.77.5.23090713.58362482.35945681 1.20269305.38 1.83a6.72999991 6.72999991 0 0 1 .23-1.58c.16769761-.23485081.41148835-.40444437.69-.48.33065229-.05978904.6693477-.05978904 1 0 .2710945.09063084.508241.26151586.68.49.212237.53020029.3404457 1.09026992.38 1.66"/>
        <path stroke="#000" stroke-linejoin="round" stroke-width=".75"
              d="M11.36 5.81c0 .14.07-.39.29-.74.1767311-.52467051.7453295-.80673112 1.27-.63.5246705.17673112.8067311.74532949.63 1.27v2.26a11.64000032 11.64000032 0 0 1-.24 1.74c-.1604334.50857-.3891904.9929966-.68 1.44-.4855522.5399641-.8867456 1.1501826-1.19 1.81a4.10999994 4.10999994 0 0 0-.1 1c-.0008851.3106255.0394673.6199942.12.92a5.87000501 5.87000501 0 0 1-1.23 0c-.39-.06-.87-.84-1-1.08-.06432211-.1288674-.19597177-.2102944-.34-.2102944-.14402823 0-.27567789.081427-.34.2102944-.22.38-.71 1.07-1 1.11-.67.08-2.06 0-3.14 0 0 0 .18-1-.23-1.36-.41-.36-.83-.78-1.14-1.06l-.83-.92c-.58569316-.543005-1.01407292-1.2339401-1.24-2-.21-.94-.19-1.4 0-1.77.19378932-.31379538.49639241-.54519774.85-.65.29381573-.05245818.59602367-.0318531.88.06.19653852.08170762.3662773.21680584.49.39.23.31.3.46.21.12s-.2-.85-.41-1.55c-.21-.7-.34-.86-.47-1.23-.13-.37-.3-.72-.5-1.18a12.2899998 12.2899998 0 0 1-.46-1.44c-.08883658-.40925667.00619227-.83688651.26-1.17.35885686-.35017874.87668179-.4834425 1.36-.35.37898328.16506312.69954183.44032535.92.79a7.47999969 7.47999969 0 0 1 .72 1.5c.33070665.85814153.56546773 1.75023363.7 2.66-.01924813-.5370597.02777302-1.07444437.14-1.6.11114926-.32418533.36581467-.57885074.69-.69.29780915-.09137481.61284549-.11192065.92-.06.31003669.06481591.58466387.24314524.77.5.23090713.58362482.35945681 1.20269305.38 1.83a6.72999991 6.72999991 0 0 1 .23-1.58c.16769761-.23485081.41148835-.40444437.69-.48.33065229-.05978904.6693477-.05978904 1 0 .2710945.09063084.508241.26151586.68.49.1975477.52923212.3122309 1.0857832.34 1.65z"/>
        <path fill="#000" fill-rule="nonzero"
              d="M10.75 11.8258906V8.37410925C10.75 8.16749441 10.5821068 8 10.375 8S10 8.16749441 10 8.37410925v3.45178135c0 .2066148.1678932.3741092.375.3741092s.375-.1674944.375-.3741092zM8.75999848 11.8257015l-.01-3.45355431c-.00059685-.20612436-.16897321-.37273962-.37607913-.37214561-.20710592.00059402-.37451461.16817238-.37391776.37429674l.01 3.45355428c.00059685.2061244.16897321.3727396.37607913.3721456.20710592-.000594.3745146-.1681724.37391776-.3742967zM6.00000655 8.37990666l.02 3.44460394c.00121113.2085932.17008329.3767025.37718653.3754826.20710324-.0012198.37401178-.1713069.37280065-.3799001l-.02-3.44460388c-.00121113-.20859317-.1700833-.37670247-.37718654-.37548262-.20710324.00121984-.37401177.17130689-.37280064.37990006z"/>
    </g>
</svg>
